%TF.GenerationSoftware,KiCad,Pcbnew,(5.1.10-1-10_14)*%
%TF.CreationDate,2021-07-28T23:22:07+08:00*%
%TF.ProjectId,maxm8q_board,6d61786d-3871-45f6-926f-6172642e6b69,rev?*%
%TF.SameCoordinates,Original*%
%TF.FileFunction,Legend,Top*%
%TF.FilePolarity,Positive*%
%FSLAX46Y46*%
G04 Gerber Fmt 4.6, Leading zero omitted, Abs format (unit mm)*
G04 Created by KiCad (PCBNEW (5.1.10-1-10_14)) date 2021-07-28 23:22:07*
%MOMM*%
%LPD*%
G01*
G04 APERTURE LIST*
%ADD10C,0.150000*%
%ADD11C,0.120000*%
%ADD12C,0.254000*%
%ADD13C,0.304800*%
%ADD14C,0.152400*%
G04 APERTURE END LIST*
D10*
X123850000Y-63691904D02*
X123802380Y-63787142D01*
X123802380Y-63930000D01*
X123850000Y-64072857D01*
X123945238Y-64168095D01*
X124040476Y-64215714D01*
X124230952Y-64263333D01*
X124373809Y-64263333D01*
X124564285Y-64215714D01*
X124659523Y-64168095D01*
X124754761Y-64072857D01*
X124802380Y-63930000D01*
X124802380Y-63834761D01*
X124754761Y-63691904D01*
X124707142Y-63644285D01*
X124373809Y-63644285D01*
X124373809Y-63834761D01*
X124802380Y-63215714D02*
X123802380Y-63215714D01*
X124802380Y-62644285D01*
X123802380Y-62644285D01*
X124802380Y-62168095D02*
X123802380Y-62168095D01*
X123802380Y-61930000D01*
X123850000Y-61787142D01*
X123945238Y-61691904D01*
X124040476Y-61644285D01*
X124230952Y-61596666D01*
X124373809Y-61596666D01*
X124564285Y-61644285D01*
X124659523Y-61691904D01*
X124754761Y-61787142D01*
X124802380Y-61930000D01*
X124802380Y-62168095D01*
X134363809Y-70244761D02*
X134506666Y-70292380D01*
X134744761Y-70292380D01*
X134840000Y-70244761D01*
X134887619Y-70197142D01*
X134935238Y-70101904D01*
X134935238Y-70006666D01*
X134887619Y-69911428D01*
X134840000Y-69863809D01*
X134744761Y-69816190D01*
X134554285Y-69768571D01*
X134459047Y-69720952D01*
X134411428Y-69673333D01*
X134363809Y-69578095D01*
X134363809Y-69482857D01*
X134411428Y-69387619D01*
X134459047Y-69340000D01*
X134554285Y-69292380D01*
X134792380Y-69292380D01*
X134935238Y-69340000D01*
X135363809Y-70292380D02*
X135363809Y-69292380D01*
X135601904Y-69292380D01*
X135744761Y-69340000D01*
X135840000Y-69435238D01*
X135887619Y-69530476D01*
X135935238Y-69720952D01*
X135935238Y-69863809D01*
X135887619Y-70054285D01*
X135840000Y-70149523D01*
X135744761Y-70244761D01*
X135601904Y-70292380D01*
X135363809Y-70292380D01*
X136316190Y-70006666D02*
X136792380Y-70006666D01*
X136220952Y-70292380D02*
X136554285Y-69292380D01*
X136887619Y-70292380D01*
X137935238Y-70244761D02*
X138078095Y-70292380D01*
X138316190Y-70292380D01*
X138411428Y-70244761D01*
X138459047Y-70197142D01*
X138506666Y-70101904D01*
X138506666Y-70006666D01*
X138459047Y-69911428D01*
X138411428Y-69863809D01*
X138316190Y-69816190D01*
X138125714Y-69768571D01*
X138030476Y-69720952D01*
X137982857Y-69673333D01*
X137935238Y-69578095D01*
X137935238Y-69482857D01*
X137982857Y-69387619D01*
X138030476Y-69340000D01*
X138125714Y-69292380D01*
X138363809Y-69292380D01*
X138506666Y-69340000D01*
X139506666Y-70197142D02*
X139459047Y-70244761D01*
X139316190Y-70292380D01*
X139220952Y-70292380D01*
X139078095Y-70244761D01*
X138982857Y-70149523D01*
X138935238Y-70054285D01*
X138887619Y-69863809D01*
X138887619Y-69720952D01*
X138935238Y-69530476D01*
X138982857Y-69435238D01*
X139078095Y-69340000D01*
X139220952Y-69292380D01*
X139316190Y-69292380D01*
X139459047Y-69340000D01*
X139506666Y-69387619D01*
X140411428Y-70292380D02*
X139935238Y-70292380D01*
X139935238Y-69292380D01*
D11*
X132840000Y-64220000D02*
X137010000Y-69360000D01*
X128990000Y-64200000D02*
X132840000Y-64220000D01*
D10*
X131783333Y-68652380D02*
X131450000Y-68176190D01*
X131211904Y-68652380D02*
X131211904Y-67652380D01*
X131592857Y-67652380D01*
X131688095Y-67700000D01*
X131735714Y-67747619D01*
X131783333Y-67842857D01*
X131783333Y-67985714D01*
X131735714Y-68080952D01*
X131688095Y-68128571D01*
X131592857Y-68176190D01*
X131211904Y-68176190D01*
X132116666Y-67652380D02*
X132783333Y-68652380D01*
X132783333Y-67652380D02*
X132116666Y-68652380D01*
X133164285Y-68652380D02*
X133164285Y-67652380D01*
X133402380Y-67652380D01*
X133545238Y-67700000D01*
X133640476Y-67795238D01*
X133688095Y-67890476D01*
X133735714Y-68080952D01*
X133735714Y-68223809D01*
X133688095Y-68414285D01*
X133640476Y-68509523D01*
X133545238Y-68604761D01*
X133402380Y-68652380D01*
X133164285Y-68652380D01*
X127988095Y-67652380D02*
X128559523Y-67652380D01*
X128273809Y-68652380D02*
X128273809Y-67652380D01*
X128797619Y-67652380D02*
X129464285Y-68652380D01*
X129464285Y-67652380D02*
X128797619Y-68652380D01*
X129845238Y-68652380D02*
X129845238Y-67652380D01*
X130083333Y-67652380D01*
X130226190Y-67700000D01*
X130321428Y-67795238D01*
X130369047Y-67890476D01*
X130416666Y-68080952D01*
X130416666Y-68223809D01*
X130369047Y-68414285D01*
X130321428Y-68509523D01*
X130226190Y-68604761D01*
X130083333Y-68652380D01*
X129845238Y-68652380D01*
X136736666Y-65482380D02*
X137070000Y-66482380D01*
X137403333Y-65482380D01*
X138308095Y-66387142D02*
X138260476Y-66434761D01*
X138117619Y-66482380D01*
X138022380Y-66482380D01*
X137879523Y-66434761D01*
X137784285Y-66339523D01*
X137736666Y-66244285D01*
X137689047Y-66053809D01*
X137689047Y-65910952D01*
X137736666Y-65720476D01*
X137784285Y-65625238D01*
X137879523Y-65530000D01*
X138022380Y-65482380D01*
X138117619Y-65482380D01*
X138260476Y-65530000D01*
X138308095Y-65577619D01*
X139308095Y-66387142D02*
X139260476Y-66434761D01*
X139117619Y-66482380D01*
X139022380Y-66482380D01*
X138879523Y-66434761D01*
X138784285Y-66339523D01*
X138736666Y-66244285D01*
X138689047Y-66053809D01*
X138689047Y-65910952D01*
X138736666Y-65720476D01*
X138784285Y-65625238D01*
X138879523Y-65530000D01*
X139022380Y-65482380D01*
X139117619Y-65482380D01*
X139260476Y-65530000D01*
X139308095Y-65577619D01*
X129801904Y-96738571D02*
X130135238Y-96738571D01*
X130278095Y-97262380D02*
X129801904Y-97262380D01*
X129801904Y-96262380D01*
X130278095Y-96262380D01*
X130706666Y-97262380D02*
X130706666Y-96262380D01*
X131278095Y-97262380D01*
X131278095Y-96262380D01*
X138125238Y-97412380D02*
X138125238Y-96412380D01*
X138601428Y-97412380D02*
X138601428Y-96412380D01*
X139172857Y-97412380D01*
X139172857Y-96412380D01*
X139506190Y-96412380D02*
X140077619Y-96412380D01*
X139791904Y-97412380D02*
X139791904Y-96412380D01*
X138692380Y-99932380D02*
X138359047Y-99456190D01*
X138120952Y-99932380D02*
X138120952Y-98932380D01*
X138501904Y-98932380D01*
X138597142Y-98980000D01*
X138644761Y-99027619D01*
X138692380Y-99122857D01*
X138692380Y-99265714D01*
X138644761Y-99360952D01*
X138597142Y-99408571D01*
X138501904Y-99456190D01*
X138120952Y-99456190D01*
X139073333Y-99884761D02*
X139216190Y-99932380D01*
X139454285Y-99932380D01*
X139549523Y-99884761D01*
X139597142Y-99837142D01*
X139644761Y-99741904D01*
X139644761Y-99646666D01*
X139597142Y-99551428D01*
X139549523Y-99503809D01*
X139454285Y-99456190D01*
X139263809Y-99408571D01*
X139168571Y-99360952D01*
X139120952Y-99313333D01*
X139073333Y-99218095D01*
X139073333Y-99122857D01*
X139120952Y-99027619D01*
X139168571Y-98980000D01*
X139263809Y-98932380D01*
X139501904Y-98932380D01*
X139644761Y-98980000D01*
X139930476Y-98932380D02*
X140501904Y-98932380D01*
X140216190Y-99932380D02*
X140216190Y-98932380D01*
X129984285Y-98912380D02*
X130555714Y-98912380D01*
X130270000Y-99912380D02*
X130270000Y-98912380D01*
X130889047Y-99912380D02*
X130889047Y-98912380D01*
X131270000Y-98912380D01*
X131365238Y-98960000D01*
X131412857Y-99007619D01*
X131460476Y-99102857D01*
X131460476Y-99245714D01*
X131412857Y-99340952D01*
X131365238Y-99388571D01*
X131270000Y-99436190D01*
X130889047Y-99436190D01*
X133496666Y-91212380D02*
X133830000Y-92212380D01*
X134163333Y-91212380D01*
X135068095Y-92117142D02*
X135020476Y-92164761D01*
X134877619Y-92212380D01*
X134782380Y-92212380D01*
X134639523Y-92164761D01*
X134544285Y-92069523D01*
X134496666Y-91974285D01*
X134449047Y-91783809D01*
X134449047Y-91640952D01*
X134496666Y-91450476D01*
X134544285Y-91355238D01*
X134639523Y-91260000D01*
X134782380Y-91212380D01*
X134877619Y-91212380D01*
X135020476Y-91260000D01*
X135068095Y-91307619D01*
X136068095Y-92117142D02*
X136020476Y-92164761D01*
X135877619Y-92212380D01*
X135782380Y-92212380D01*
X135639523Y-92164761D01*
X135544285Y-92069523D01*
X135496666Y-91974285D01*
X135449047Y-91783809D01*
X135449047Y-91640952D01*
X135496666Y-91450476D01*
X135544285Y-91355238D01*
X135639523Y-91260000D01*
X135782380Y-91212380D01*
X135877619Y-91212380D01*
X136020476Y-91260000D01*
X136068095Y-91307619D01*
X133948095Y-104020000D02*
X133852857Y-103972380D01*
X133710000Y-103972380D01*
X133567142Y-104020000D01*
X133471904Y-104115238D01*
X133424285Y-104210476D01*
X133376666Y-104400952D01*
X133376666Y-104543809D01*
X133424285Y-104734285D01*
X133471904Y-104829523D01*
X133567142Y-104924761D01*
X133710000Y-104972380D01*
X133805238Y-104972380D01*
X133948095Y-104924761D01*
X133995714Y-104877142D01*
X133995714Y-104543809D01*
X133805238Y-104543809D01*
X134424285Y-104972380D02*
X134424285Y-103972380D01*
X134995714Y-104972380D01*
X134995714Y-103972380D01*
X135471904Y-104972380D02*
X135471904Y-103972380D01*
X135710000Y-103972380D01*
X135852857Y-104020000D01*
X135948095Y-104115238D01*
X135995714Y-104210476D01*
X136043333Y-104400952D01*
X136043333Y-104543809D01*
X135995714Y-104734285D01*
X135948095Y-104829523D01*
X135852857Y-104924761D01*
X135710000Y-104972380D01*
X135471904Y-104972380D01*
D11*
X143000000Y-83000000D02*
X146000000Y-83000000D01*
%TO.C,X1*%
X141740000Y-82260000D02*
X141740000Y-81150000D01*
X141740000Y-85050000D02*
X141740000Y-83940000D01*
X145450000Y-82260000D02*
X145450000Y-81150000D01*
X145450000Y-85050000D02*
X145450000Y-83940000D01*
X141190000Y-83100000D02*
X140690000Y-82850000D01*
X140690000Y-82850000D02*
X140690000Y-83350000D01*
X140690000Y-83350000D02*
X141190000Y-83100000D01*
%TO.C,TP1*%
X122060000Y-73590000D02*
X123460000Y-73590000D01*
X123460000Y-73590000D02*
X123460000Y-74990000D01*
X123460000Y-74990000D02*
X122060000Y-74990000D01*
X122060000Y-74990000D02*
X122060000Y-73590000D01*
%TO.C,C6*%
X110385000Y-86508748D02*
X110385000Y-87031252D01*
X108915000Y-86508748D02*
X108915000Y-87031252D01*
%TO.C,R9*%
X114940000Y-64939879D02*
X114940000Y-65275121D01*
X114180000Y-64939879D02*
X114180000Y-65275121D01*
%TO.C,R8*%
X110277621Y-67660000D02*
X109942379Y-67660000D01*
X110277621Y-66900000D02*
X109942379Y-66900000D01*
%TO.C,R7*%
X112780000Y-65247621D02*
X112780000Y-64912379D01*
X113540000Y-65247621D02*
X113540000Y-64912379D01*
%TO.C,R6*%
X117207621Y-88940000D02*
X116872379Y-88940000D01*
X117207621Y-88180000D02*
X116872379Y-88180000D01*
%TO.C,R5*%
X140532379Y-92890000D02*
X140867621Y-92890000D01*
X140532379Y-93650000D02*
X140867621Y-93650000D01*
%TO.C,R4*%
X140722379Y-94720000D02*
X141057621Y-94720000D01*
X140722379Y-95480000D02*
X141057621Y-95480000D01*
%TO.C,R2*%
X123797621Y-67810000D02*
X123462379Y-67810000D01*
X123797621Y-67050000D02*
X123462379Y-67050000D01*
%TO.C,R1*%
X123757621Y-66600000D02*
X123422379Y-66600000D01*
X123757621Y-65840000D02*
X123422379Y-65840000D01*
%TO.C,C5*%
X117175835Y-87850000D02*
X116944165Y-87850000D01*
X117175835Y-87130000D02*
X116944165Y-87130000D01*
%TO.C,C4*%
X134140000Y-73744165D02*
X134140000Y-73975835D01*
X133420000Y-73744165D02*
X133420000Y-73975835D01*
%TO.C,J2*%
X125790000Y-61650000D02*
X125790000Y-66850000D01*
X133470000Y-61650000D02*
X125790000Y-61650000D01*
X136070000Y-66850000D02*
X125790000Y-66850000D01*
X133470000Y-61650000D02*
X133470000Y-64250000D01*
X133470000Y-64250000D02*
X136070000Y-64250000D01*
X136070000Y-64250000D02*
X136070000Y-66850000D01*
X134740000Y-61650000D02*
X136070000Y-61650000D01*
X136070000Y-61650000D02*
X136070000Y-62980000D01*
%TO.C,J4*%
X132100000Y-103250000D02*
X137300000Y-103250000D01*
X132100000Y-95570000D02*
X132100000Y-103250000D01*
X137300000Y-92970000D02*
X137300000Y-103250000D01*
X132100000Y-95570000D02*
X134700000Y-95570000D01*
X134700000Y-95570000D02*
X134700000Y-92970000D01*
X134700000Y-92970000D02*
X137300000Y-92970000D01*
X132100000Y-94300000D02*
X132100000Y-92970000D01*
X132100000Y-92970000D02*
X133430000Y-92970000D01*
D12*
%TO.C,SW1*%
X126040008Y-99774274D02*
X126040008Y-101474296D01*
X126050168Y-98680042D02*
X128950086Y-98680042D01*
X126050168Y-102579958D02*
X126050168Y-98680042D01*
X128950086Y-102579958D02*
X126050168Y-102579958D01*
X128950086Y-98680042D02*
X128950086Y-102579958D01*
D11*
%TO.C,U3*%
X110240000Y-68470000D02*
X107290000Y-68470000D01*
X108440000Y-71690000D02*
X110240000Y-71690000D01*
%TO.C,D3*%
X114095000Y-60490000D02*
X114095000Y-62950000D01*
X115565000Y-60490000D02*
X114095000Y-60490000D01*
X115565000Y-62950000D02*
X115565000Y-60490000D01*
%TO.C,D2*%
X112215000Y-60490000D02*
X112215000Y-62950000D01*
X113685000Y-60490000D02*
X112215000Y-60490000D01*
X113685000Y-62950000D02*
X113685000Y-60490000D01*
D12*
%TO.C,CN1*%
X104910289Y-70014959D02*
G75*
G03*
X104910289Y-70014959I-141478J0D01*
G01*
X104168355Y-75245835D02*
X104168355Y-72966007D01*
X103582326Y-75322975D02*
X104168355Y-75322975D01*
X100711390Y-69692633D02*
X100711390Y-73587316D01*
X104168355Y-68015191D02*
X103582326Y-68015191D01*
X104168355Y-70313917D02*
X104168355Y-68015191D01*
D10*
%TO.C,J1*%
X106660000Y-88980000D02*
X106660000Y-89705000D01*
X106660000Y-85380000D02*
X106660000Y-84655000D01*
X107085000Y-85380000D02*
X106660000Y-85380000D01*
X107085000Y-86105000D02*
X107085000Y-85380000D01*
X103510000Y-91330000D02*
X104910000Y-91330000D01*
X100960000Y-91330000D02*
X101110000Y-91330000D01*
X100960000Y-91030000D02*
X100960000Y-91330000D01*
X100510000Y-91030000D02*
X100960000Y-91030000D01*
X100960000Y-83330000D02*
X100510000Y-83330000D01*
X100960000Y-83030000D02*
X100960000Y-83330000D01*
X101110000Y-83030000D02*
X100960000Y-83030000D01*
X104910000Y-83030000D02*
X103510000Y-83030000D01*
D11*
%TO.C,JP1*%
X123840000Y-94020000D02*
X121840000Y-94020000D01*
X123840000Y-91220000D02*
X123840000Y-94020000D01*
X121840000Y-91220000D02*
X123840000Y-91220000D01*
X121840000Y-94020000D02*
X121840000Y-91220000D01*
D13*
%TO.C,B1*%
X115910000Y-89910000D02*
X117810000Y-90510000D01*
X116310000Y-105210000D02*
X117810000Y-104710000D01*
X121510000Y-100510000D02*
X121810000Y-99310000D01*
X121010000Y-101510000D02*
X121510000Y-100510000D01*
X121010000Y-104710000D02*
X121010000Y-101510000D01*
X121810000Y-95610000D02*
X121810000Y-96010000D01*
X121510000Y-94710000D02*
X121810000Y-95610000D01*
X121010000Y-93810000D02*
X121510000Y-94710000D01*
X121010000Y-90510000D02*
X121010000Y-93810000D01*
X117860000Y-104710000D02*
X121010000Y-104710000D01*
X117860000Y-90510000D02*
X121010000Y-90510000D01*
X115110000Y-105510000D02*
X116410000Y-105210000D01*
X113910000Y-105610000D02*
X115110000Y-105510000D01*
X112610000Y-105410000D02*
X113910000Y-105610000D01*
X111210000Y-105010000D02*
X112610000Y-105410000D01*
X110010000Y-104410000D02*
X111210000Y-105010000D01*
X109010000Y-103710000D02*
X110010000Y-104410000D01*
X108210000Y-102910000D02*
X109010000Y-103710000D01*
X107410000Y-101810000D02*
X108210000Y-102910000D01*
X106710000Y-100510000D02*
X107410000Y-101810000D01*
X106310000Y-99110000D02*
X106710000Y-100510000D01*
X114610000Y-89710000D02*
X115910000Y-89910000D01*
X113110000Y-89710000D02*
X114610000Y-89710000D01*
X111610000Y-90110000D02*
X113110000Y-89710000D01*
X110610000Y-90610000D02*
X111610000Y-90110000D01*
X109410000Y-91310000D02*
X110610000Y-90610000D01*
X108510000Y-92110000D02*
X109410000Y-91310000D01*
X107610000Y-93110000D02*
X108510000Y-92110000D01*
X107110000Y-94110000D02*
X107610000Y-93110000D01*
X106710000Y-95110000D02*
X107110000Y-94110000D01*
X106510000Y-96010000D02*
X106710000Y-95110000D01*
D11*
%TO.C,Q2*%
X121790000Y-87120000D02*
X121790000Y-88580000D01*
X118630000Y-87120000D02*
X118630000Y-89280000D01*
X118630000Y-87120000D02*
X119560000Y-87120000D01*
X121790000Y-87120000D02*
X120860000Y-87120000D01*
%TO.C,C3*%
X122220000Y-81723733D02*
X122220000Y-82016267D01*
X121200000Y-81723733D02*
X121200000Y-82016267D01*
%TO.C,C2*%
X117120000Y-82793733D02*
X117120000Y-83086267D01*
X116100000Y-82793733D02*
X116100000Y-83086267D01*
%TO.C,C1*%
X106876267Y-74700000D02*
X106583733Y-74700000D01*
X106876267Y-73680000D02*
X106583733Y-73680000D01*
%TO.C,Q1*%
X144710000Y-97670000D02*
X144710000Y-96740000D01*
X144710000Y-94510000D02*
X144710000Y-95440000D01*
X144710000Y-94510000D02*
X142550000Y-94510000D01*
X144710000Y-97670000D02*
X143250000Y-97670000D01*
%TO.C,D1*%
X143190000Y-94035000D02*
X145650000Y-94035000D01*
X145650000Y-94035000D02*
X145650000Y-92565000D01*
X145650000Y-92565000D02*
X143190000Y-92565000D01*
%TO.C,U2*%
X120490000Y-83160000D02*
X120490000Y-81260000D01*
X118170000Y-81760000D02*
X118170000Y-83160000D01*
%TO.C,R3*%
X128187500Y-74114724D02*
X128187500Y-73605276D01*
X129232500Y-74114724D02*
X129232500Y-73605276D01*
%TO.C,L1*%
X131300000Y-74231252D02*
X131300000Y-73708748D01*
X132720000Y-74231252D02*
X132720000Y-73708748D01*
%TO.C,U1*%
X123550000Y-87950000D02*
X123550000Y-78030000D01*
X133870000Y-87950000D02*
X133870000Y-78030000D01*
X133720000Y-78030000D02*
X133870000Y-78030000D01*
X133720000Y-87950000D02*
X133870000Y-87950000D01*
X123550000Y-78030000D02*
X123700000Y-78030000D01*
X123550000Y-87950000D02*
X123700000Y-87950000D01*
X123700000Y-88640000D02*
X123700000Y-87950000D01*
%TO.C,X1*%
D10*
X139402380Y-83909523D02*
X140402380Y-83242857D01*
X139402380Y-83242857D02*
X140402380Y-83909523D01*
X140402380Y-82338095D02*
X140402380Y-82909523D01*
X140402380Y-82623809D02*
X139402380Y-82623809D01*
X139545238Y-82719047D01*
X139640476Y-82814285D01*
X139688095Y-82909523D01*
%TO.C,TP1*%
X121498095Y-72294380D02*
X122069523Y-72294380D01*
X121783809Y-73294380D02*
X121783809Y-72294380D01*
X122402857Y-73294380D02*
X122402857Y-72294380D01*
X122783809Y-72294380D01*
X122879047Y-72342000D01*
X122926666Y-72389619D01*
X122974285Y-72484857D01*
X122974285Y-72627714D01*
X122926666Y-72722952D01*
X122879047Y-72770571D01*
X122783809Y-72818190D01*
X122402857Y-72818190D01*
X123926666Y-73294380D02*
X123355238Y-73294380D01*
X123640952Y-73294380D02*
X123640952Y-72294380D01*
X123545714Y-72437238D01*
X123450476Y-72532476D01*
X123355238Y-72580095D01*
%TO.C,C6*%
X111687142Y-86936666D02*
X111734761Y-86984285D01*
X111782380Y-87127142D01*
X111782380Y-87222380D01*
X111734761Y-87365238D01*
X111639523Y-87460476D01*
X111544285Y-87508095D01*
X111353809Y-87555714D01*
X111210952Y-87555714D01*
X111020476Y-87508095D01*
X110925238Y-87460476D01*
X110830000Y-87365238D01*
X110782380Y-87222380D01*
X110782380Y-87127142D01*
X110830000Y-86984285D01*
X110877619Y-86936666D01*
X110782380Y-86079523D02*
X110782380Y-86270000D01*
X110830000Y-86365238D01*
X110877619Y-86412857D01*
X111020476Y-86508095D01*
X111210952Y-86555714D01*
X111591904Y-86555714D01*
X111687142Y-86508095D01*
X111734761Y-86460476D01*
X111782380Y-86365238D01*
X111782380Y-86174761D01*
X111734761Y-86079523D01*
X111687142Y-86031904D01*
X111591904Y-85984285D01*
X111353809Y-85984285D01*
X111258571Y-86031904D01*
X111210952Y-86079523D01*
X111163333Y-86174761D01*
X111163333Y-86365238D01*
X111210952Y-86460476D01*
X111258571Y-86508095D01*
X111353809Y-86555714D01*
%TO.C,R9*%
X116182380Y-65274166D02*
X115706190Y-65607500D01*
X116182380Y-65845595D02*
X115182380Y-65845595D01*
X115182380Y-65464642D01*
X115230000Y-65369404D01*
X115277619Y-65321785D01*
X115372857Y-65274166D01*
X115515714Y-65274166D01*
X115610952Y-65321785D01*
X115658571Y-65369404D01*
X115706190Y-65464642D01*
X115706190Y-65845595D01*
X116182380Y-64797976D02*
X116182380Y-64607500D01*
X116134761Y-64512261D01*
X116087142Y-64464642D01*
X115944285Y-64369404D01*
X115753809Y-64321785D01*
X115372857Y-64321785D01*
X115277619Y-64369404D01*
X115230000Y-64417023D01*
X115182380Y-64512261D01*
X115182380Y-64702738D01*
X115230000Y-64797976D01*
X115277619Y-64845595D01*
X115372857Y-64893214D01*
X115610952Y-64893214D01*
X115706190Y-64845595D01*
X115753809Y-64797976D01*
X115801428Y-64702738D01*
X115801428Y-64512261D01*
X115753809Y-64417023D01*
X115706190Y-64369404D01*
X115610952Y-64321785D01*
%TO.C,R8*%
X107793333Y-67832380D02*
X107460000Y-67356190D01*
X107221904Y-67832380D02*
X107221904Y-66832380D01*
X107602857Y-66832380D01*
X107698095Y-66880000D01*
X107745714Y-66927619D01*
X107793333Y-67022857D01*
X107793333Y-67165714D01*
X107745714Y-67260952D01*
X107698095Y-67308571D01*
X107602857Y-67356190D01*
X107221904Y-67356190D01*
X108364761Y-67260952D02*
X108269523Y-67213333D01*
X108221904Y-67165714D01*
X108174285Y-67070476D01*
X108174285Y-67022857D01*
X108221904Y-66927619D01*
X108269523Y-66880000D01*
X108364761Y-66832380D01*
X108555238Y-66832380D01*
X108650476Y-66880000D01*
X108698095Y-66927619D01*
X108745714Y-67022857D01*
X108745714Y-67070476D01*
X108698095Y-67165714D01*
X108650476Y-67213333D01*
X108555238Y-67260952D01*
X108364761Y-67260952D01*
X108269523Y-67308571D01*
X108221904Y-67356190D01*
X108174285Y-67451428D01*
X108174285Y-67641904D01*
X108221904Y-67737142D01*
X108269523Y-67784761D01*
X108364761Y-67832380D01*
X108555238Y-67832380D01*
X108650476Y-67784761D01*
X108698095Y-67737142D01*
X108745714Y-67641904D01*
X108745714Y-67451428D01*
X108698095Y-67356190D01*
X108650476Y-67308571D01*
X108555238Y-67260952D01*
%TO.C,R7*%
X112442380Y-65246666D02*
X111966190Y-65580000D01*
X112442380Y-65818095D02*
X111442380Y-65818095D01*
X111442380Y-65437142D01*
X111490000Y-65341904D01*
X111537619Y-65294285D01*
X111632857Y-65246666D01*
X111775714Y-65246666D01*
X111870952Y-65294285D01*
X111918571Y-65341904D01*
X111966190Y-65437142D01*
X111966190Y-65818095D01*
X111442380Y-64913333D02*
X111442380Y-64246666D01*
X112442380Y-64675238D01*
%TO.C,R6*%
X114373333Y-89062380D02*
X114040000Y-88586190D01*
X113801904Y-89062380D02*
X113801904Y-88062380D01*
X114182857Y-88062380D01*
X114278095Y-88110000D01*
X114325714Y-88157619D01*
X114373333Y-88252857D01*
X114373333Y-88395714D01*
X114325714Y-88490952D01*
X114278095Y-88538571D01*
X114182857Y-88586190D01*
X113801904Y-88586190D01*
X115230476Y-88062380D02*
X115040000Y-88062380D01*
X114944761Y-88110000D01*
X114897142Y-88157619D01*
X114801904Y-88300476D01*
X114754285Y-88490952D01*
X114754285Y-88871904D01*
X114801904Y-88967142D01*
X114849523Y-89014761D01*
X114944761Y-89062380D01*
X115135238Y-89062380D01*
X115230476Y-89014761D01*
X115278095Y-88967142D01*
X115325714Y-88871904D01*
X115325714Y-88633809D01*
X115278095Y-88538571D01*
X115230476Y-88490952D01*
X115135238Y-88443333D01*
X114944761Y-88443333D01*
X114849523Y-88490952D01*
X114801904Y-88538571D01*
X114754285Y-88633809D01*
%TO.C,R5*%
X140533333Y-92552380D02*
X140200000Y-92076190D01*
X139961904Y-92552380D02*
X139961904Y-91552380D01*
X140342857Y-91552380D01*
X140438095Y-91600000D01*
X140485714Y-91647619D01*
X140533333Y-91742857D01*
X140533333Y-91885714D01*
X140485714Y-91980952D01*
X140438095Y-92028571D01*
X140342857Y-92076190D01*
X139961904Y-92076190D01*
X141438095Y-91552380D02*
X140961904Y-91552380D01*
X140914285Y-92028571D01*
X140961904Y-91980952D01*
X141057142Y-91933333D01*
X141295238Y-91933333D01*
X141390476Y-91980952D01*
X141438095Y-92028571D01*
X141485714Y-92123809D01*
X141485714Y-92361904D01*
X141438095Y-92457142D01*
X141390476Y-92504761D01*
X141295238Y-92552380D01*
X141057142Y-92552380D01*
X140961904Y-92504761D01*
X140914285Y-92457142D01*
%TO.C,R4*%
X142062380Y-96616666D02*
X141586190Y-96950000D01*
X142062380Y-97188095D02*
X141062380Y-97188095D01*
X141062380Y-96807142D01*
X141110000Y-96711904D01*
X141157619Y-96664285D01*
X141252857Y-96616666D01*
X141395714Y-96616666D01*
X141490952Y-96664285D01*
X141538571Y-96711904D01*
X141586190Y-96807142D01*
X141586190Y-97188095D01*
X141395714Y-95759523D02*
X142062380Y-95759523D01*
X141014761Y-95997619D02*
X141729047Y-96235714D01*
X141729047Y-95616666D01*
%TO.C,R2*%
X120973333Y-68152380D02*
X120640000Y-67676190D01*
X120401904Y-68152380D02*
X120401904Y-67152380D01*
X120782857Y-67152380D01*
X120878095Y-67200000D01*
X120925714Y-67247619D01*
X120973333Y-67342857D01*
X120973333Y-67485714D01*
X120925714Y-67580952D01*
X120878095Y-67628571D01*
X120782857Y-67676190D01*
X120401904Y-67676190D01*
X121354285Y-67247619D02*
X121401904Y-67200000D01*
X121497142Y-67152380D01*
X121735238Y-67152380D01*
X121830476Y-67200000D01*
X121878095Y-67247619D01*
X121925714Y-67342857D01*
X121925714Y-67438095D01*
X121878095Y-67580952D01*
X121306666Y-68152380D01*
X121925714Y-68152380D01*
%TO.C,R1*%
X121033333Y-66612380D02*
X120700000Y-66136190D01*
X120461904Y-66612380D02*
X120461904Y-65612380D01*
X120842857Y-65612380D01*
X120938095Y-65660000D01*
X120985714Y-65707619D01*
X121033333Y-65802857D01*
X121033333Y-65945714D01*
X120985714Y-66040952D01*
X120938095Y-66088571D01*
X120842857Y-66136190D01*
X120461904Y-66136190D01*
X121985714Y-66612380D02*
X121414285Y-66612380D01*
X121700000Y-66612380D02*
X121700000Y-65612380D01*
X121604761Y-65755238D01*
X121509523Y-65850476D01*
X121414285Y-65898095D01*
%TO.C,C5*%
X114533333Y-87637142D02*
X114485714Y-87684761D01*
X114342857Y-87732380D01*
X114247619Y-87732380D01*
X114104761Y-87684761D01*
X114009523Y-87589523D01*
X113961904Y-87494285D01*
X113914285Y-87303809D01*
X113914285Y-87160952D01*
X113961904Y-86970476D01*
X114009523Y-86875238D01*
X114104761Y-86780000D01*
X114247619Y-86732380D01*
X114342857Y-86732380D01*
X114485714Y-86780000D01*
X114533333Y-86827619D01*
X115438095Y-86732380D02*
X114961904Y-86732380D01*
X114914285Y-87208571D01*
X114961904Y-87160952D01*
X115057142Y-87113333D01*
X115295238Y-87113333D01*
X115390476Y-87160952D01*
X115438095Y-87208571D01*
X115485714Y-87303809D01*
X115485714Y-87541904D01*
X115438095Y-87637142D01*
X115390476Y-87684761D01*
X115295238Y-87732380D01*
X115057142Y-87732380D01*
X114961904Y-87684761D01*
X114914285Y-87637142D01*
%TO.C,C4*%
X135297142Y-74026666D02*
X135344761Y-74074285D01*
X135392380Y-74217142D01*
X135392380Y-74312380D01*
X135344761Y-74455238D01*
X135249523Y-74550476D01*
X135154285Y-74598095D01*
X134963809Y-74645714D01*
X134820952Y-74645714D01*
X134630476Y-74598095D01*
X134535238Y-74550476D01*
X134440000Y-74455238D01*
X134392380Y-74312380D01*
X134392380Y-74217142D01*
X134440000Y-74074285D01*
X134487619Y-74026666D01*
X134725714Y-73169523D02*
X135392380Y-73169523D01*
X134344761Y-73407619D02*
X135059047Y-73645714D01*
X135059047Y-73026666D01*
%TO.C,H4*%
X142398095Y-59132380D02*
X142398095Y-58132380D01*
X142398095Y-58608571D02*
X142969523Y-58608571D01*
X142969523Y-59132380D02*
X142969523Y-58132380D01*
X143874285Y-58465714D02*
X143874285Y-59132380D01*
X143636190Y-58084761D02*
X143398095Y-58799047D01*
X144017142Y-58799047D01*
%TO.C,H3*%
X143438095Y-111312380D02*
X143438095Y-110312380D01*
X143438095Y-110788571D02*
X144009523Y-110788571D01*
X144009523Y-111312380D02*
X144009523Y-110312380D01*
X144390476Y-110312380D02*
X145009523Y-110312380D01*
X144676190Y-110693333D01*
X144819047Y-110693333D01*
X144914285Y-110740952D01*
X144961904Y-110788571D01*
X145009523Y-110883809D01*
X145009523Y-111121904D01*
X144961904Y-111217142D01*
X144914285Y-111264761D01*
X144819047Y-111312380D01*
X144533333Y-111312380D01*
X144438095Y-111264761D01*
X144390476Y-111217142D01*
%TO.C,H2*%
X102238095Y-59602380D02*
X102238095Y-58602380D01*
X102238095Y-59078571D02*
X102809523Y-59078571D01*
X102809523Y-59602380D02*
X102809523Y-58602380D01*
X103238095Y-58697619D02*
X103285714Y-58650000D01*
X103380952Y-58602380D01*
X103619047Y-58602380D01*
X103714285Y-58650000D01*
X103761904Y-58697619D01*
X103809523Y-58792857D01*
X103809523Y-58888095D01*
X103761904Y-59030952D01*
X103190476Y-59602380D01*
X103809523Y-59602380D01*
%TO.C,H1*%
X102008095Y-110342380D02*
X102008095Y-109342380D01*
X102008095Y-109818571D02*
X102579523Y-109818571D01*
X102579523Y-110342380D02*
X102579523Y-109342380D01*
X103579523Y-110342380D02*
X103008095Y-110342380D01*
X103293809Y-110342380D02*
X103293809Y-109342380D01*
X103198571Y-109485238D01*
X103103333Y-109580476D01*
X103008095Y-109628095D01*
%TO.C,J2*%
X136522380Y-64583333D02*
X137236666Y-64583333D01*
X137379523Y-64630952D01*
X137474761Y-64726190D01*
X137522380Y-64869047D01*
X137522380Y-64964285D01*
X136617619Y-64154761D02*
X136570000Y-64107142D01*
X136522380Y-64011904D01*
X136522380Y-63773809D01*
X136570000Y-63678571D01*
X136617619Y-63630952D01*
X136712857Y-63583333D01*
X136808095Y-63583333D01*
X136950952Y-63630952D01*
X137522380Y-64202380D01*
X137522380Y-63583333D01*
%TO.C,J4*%
X130406666Y-93462380D02*
X130406666Y-94176666D01*
X130359047Y-94319523D01*
X130263809Y-94414761D01*
X130120952Y-94462380D01*
X130025714Y-94462380D01*
X131311428Y-93795714D02*
X131311428Y-94462380D01*
X131073333Y-93414761D02*
X130835238Y-94129047D01*
X131454285Y-94129047D01*
%TO.C,SW1*%
D14*
X124175225Y-105232642D02*
X124338511Y-105287071D01*
X124610654Y-105287071D01*
X124719511Y-105232642D01*
X124773940Y-105178214D01*
X124828368Y-105069357D01*
X124828368Y-104960500D01*
X124773940Y-104851642D01*
X124719511Y-104797214D01*
X124610654Y-104742785D01*
X124392940Y-104688357D01*
X124284082Y-104633928D01*
X124229654Y-104579500D01*
X124175225Y-104470642D01*
X124175225Y-104361785D01*
X124229654Y-104252928D01*
X124284082Y-104198500D01*
X124392940Y-104144071D01*
X124665082Y-104144071D01*
X124828368Y-104198500D01*
X125209368Y-104144071D02*
X125481511Y-105287071D01*
X125699225Y-104470642D01*
X125916940Y-105287071D01*
X126189082Y-104144071D01*
X127223225Y-105287071D02*
X126570082Y-105287071D01*
X126896654Y-105287071D02*
X126896654Y-104144071D01*
X126787797Y-104307357D01*
X126678940Y-104416214D01*
X126570082Y-104470642D01*
%TO.C,U3*%
D10*
X107898095Y-72242380D02*
X107898095Y-73051904D01*
X107945714Y-73147142D01*
X107993333Y-73194761D01*
X108088571Y-73242380D01*
X108279047Y-73242380D01*
X108374285Y-73194761D01*
X108421904Y-73147142D01*
X108469523Y-73051904D01*
X108469523Y-72242380D01*
X108850476Y-72242380D02*
X109469523Y-72242380D01*
X109136190Y-72623333D01*
X109279047Y-72623333D01*
X109374285Y-72670952D01*
X109421904Y-72718571D01*
X109469523Y-72813809D01*
X109469523Y-73051904D01*
X109421904Y-73147142D01*
X109374285Y-73194761D01*
X109279047Y-73242380D01*
X108993333Y-73242380D01*
X108898095Y-73194761D01*
X108850476Y-73147142D01*
%TO.C,D3*%
X116872380Y-62918095D02*
X115872380Y-62918095D01*
X115872380Y-62680000D01*
X115920000Y-62537142D01*
X116015238Y-62441904D01*
X116110476Y-62394285D01*
X116300952Y-62346666D01*
X116443809Y-62346666D01*
X116634285Y-62394285D01*
X116729523Y-62441904D01*
X116824761Y-62537142D01*
X116872380Y-62680000D01*
X116872380Y-62918095D01*
X115872380Y-62013333D02*
X115872380Y-61394285D01*
X116253333Y-61727619D01*
X116253333Y-61584761D01*
X116300952Y-61489523D01*
X116348571Y-61441904D01*
X116443809Y-61394285D01*
X116681904Y-61394285D01*
X116777142Y-61441904D01*
X116824761Y-61489523D01*
X116872380Y-61584761D01*
X116872380Y-61870476D01*
X116824761Y-61965714D01*
X116777142Y-62013333D01*
%TO.C,D2*%
X111932380Y-62708095D02*
X110932380Y-62708095D01*
X110932380Y-62470000D01*
X110980000Y-62327142D01*
X111075238Y-62231904D01*
X111170476Y-62184285D01*
X111360952Y-62136666D01*
X111503809Y-62136666D01*
X111694285Y-62184285D01*
X111789523Y-62231904D01*
X111884761Y-62327142D01*
X111932380Y-62470000D01*
X111932380Y-62708095D01*
X111027619Y-61755714D02*
X110980000Y-61708095D01*
X110932380Y-61612857D01*
X110932380Y-61374761D01*
X110980000Y-61279523D01*
X111027619Y-61231904D01*
X111122857Y-61184285D01*
X111218095Y-61184285D01*
X111360952Y-61231904D01*
X111932380Y-61803333D01*
X111932380Y-61184285D01*
%TO.C,CN1*%
X105747142Y-69240476D02*
X105794761Y-69288095D01*
X105842380Y-69430952D01*
X105842380Y-69526190D01*
X105794761Y-69669047D01*
X105699523Y-69764285D01*
X105604285Y-69811904D01*
X105413809Y-69859523D01*
X105270952Y-69859523D01*
X105080476Y-69811904D01*
X104985238Y-69764285D01*
X104890000Y-69669047D01*
X104842380Y-69526190D01*
X104842380Y-69430952D01*
X104890000Y-69288095D01*
X104937619Y-69240476D01*
X105842380Y-68811904D02*
X104842380Y-68811904D01*
X105842380Y-68240476D01*
X104842380Y-68240476D01*
X105842380Y-67240476D02*
X105842380Y-67811904D01*
X105842380Y-67526190D02*
X104842380Y-67526190D01*
X104985238Y-67621428D01*
X105080476Y-67716666D01*
X105128095Y-67811904D01*
%TO.C,J1*%
X107212380Y-87513333D02*
X107926666Y-87513333D01*
X108069523Y-87560952D01*
X108164761Y-87656190D01*
X108212380Y-87799047D01*
X108212380Y-87894285D01*
X108212380Y-86513333D02*
X108212380Y-87084761D01*
X108212380Y-86799047D02*
X107212380Y-86799047D01*
X107355238Y-86894285D01*
X107450476Y-86989523D01*
X107498095Y-87084761D01*
%TO.C,JP1*%
X120492380Y-93453333D02*
X121206666Y-93453333D01*
X121349523Y-93500952D01*
X121444761Y-93596190D01*
X121492380Y-93739047D01*
X121492380Y-93834285D01*
X121492380Y-92977142D02*
X120492380Y-92977142D01*
X120492380Y-92596190D01*
X120540000Y-92500952D01*
X120587619Y-92453333D01*
X120682857Y-92405714D01*
X120825714Y-92405714D01*
X120920952Y-92453333D01*
X120968571Y-92500952D01*
X121016190Y-92596190D01*
X121016190Y-92977142D01*
X121492380Y-91453333D02*
X121492380Y-92024761D01*
X121492380Y-91739047D02*
X120492380Y-91739047D01*
X120635238Y-91834285D01*
X120730476Y-91929523D01*
X120778095Y-92024761D01*
%TO.C,Q2*%
X119627619Y-85625238D02*
X119580000Y-85720476D01*
X119484761Y-85815714D01*
X119341904Y-85958571D01*
X119294285Y-86053809D01*
X119294285Y-86149047D01*
X119532380Y-86101428D02*
X119484761Y-86196666D01*
X119389523Y-86291904D01*
X119199047Y-86339523D01*
X118865714Y-86339523D01*
X118675238Y-86291904D01*
X118580000Y-86196666D01*
X118532380Y-86101428D01*
X118532380Y-85910952D01*
X118580000Y-85815714D01*
X118675238Y-85720476D01*
X118865714Y-85672857D01*
X119199047Y-85672857D01*
X119389523Y-85720476D01*
X119484761Y-85815714D01*
X119532380Y-85910952D01*
X119532380Y-86101428D01*
X118627619Y-85291904D02*
X118580000Y-85244285D01*
X118532380Y-85149047D01*
X118532380Y-84910952D01*
X118580000Y-84815714D01*
X118627619Y-84768095D01*
X118722857Y-84720476D01*
X118818095Y-84720476D01*
X118960952Y-84768095D01*
X119532380Y-85339523D01*
X119532380Y-84720476D01*
%TO.C,C3*%
X122077142Y-79156666D02*
X122124761Y-79204285D01*
X122172380Y-79347142D01*
X122172380Y-79442380D01*
X122124761Y-79585238D01*
X122029523Y-79680476D01*
X121934285Y-79728095D01*
X121743809Y-79775714D01*
X121600952Y-79775714D01*
X121410476Y-79728095D01*
X121315238Y-79680476D01*
X121220000Y-79585238D01*
X121172380Y-79442380D01*
X121172380Y-79347142D01*
X121220000Y-79204285D01*
X121267619Y-79156666D01*
X121172380Y-78823333D02*
X121172380Y-78204285D01*
X121553333Y-78537619D01*
X121553333Y-78394761D01*
X121600952Y-78299523D01*
X121648571Y-78251904D01*
X121743809Y-78204285D01*
X121981904Y-78204285D01*
X122077142Y-78251904D01*
X122124761Y-78299523D01*
X122172380Y-78394761D01*
X122172380Y-78680476D01*
X122124761Y-78775714D01*
X122077142Y-78823333D01*
%TO.C,C2*%
X116587142Y-80016666D02*
X116634761Y-80064285D01*
X116682380Y-80207142D01*
X116682380Y-80302380D01*
X116634761Y-80445238D01*
X116539523Y-80540476D01*
X116444285Y-80588095D01*
X116253809Y-80635714D01*
X116110952Y-80635714D01*
X115920476Y-80588095D01*
X115825238Y-80540476D01*
X115730000Y-80445238D01*
X115682380Y-80302380D01*
X115682380Y-80207142D01*
X115730000Y-80064285D01*
X115777619Y-80016666D01*
X115777619Y-79635714D02*
X115730000Y-79588095D01*
X115682380Y-79492857D01*
X115682380Y-79254761D01*
X115730000Y-79159523D01*
X115777619Y-79111904D01*
X115872857Y-79064285D01*
X115968095Y-79064285D01*
X116110952Y-79111904D01*
X116682380Y-79683333D01*
X116682380Y-79064285D01*
%TO.C,C1*%
X106563333Y-75977142D02*
X106515714Y-76024761D01*
X106372857Y-76072380D01*
X106277619Y-76072380D01*
X106134761Y-76024761D01*
X106039523Y-75929523D01*
X105991904Y-75834285D01*
X105944285Y-75643809D01*
X105944285Y-75500952D01*
X105991904Y-75310476D01*
X106039523Y-75215238D01*
X106134761Y-75120000D01*
X106277619Y-75072380D01*
X106372857Y-75072380D01*
X106515714Y-75120000D01*
X106563333Y-75167619D01*
X107515714Y-76072380D02*
X106944285Y-76072380D01*
X107230000Y-76072380D02*
X107230000Y-75072380D01*
X107134761Y-75215238D01*
X107039523Y-75310476D01*
X106944285Y-75358095D01*
%TO.C,Q1*%
X143914761Y-99237619D02*
X143819523Y-99190000D01*
X143724285Y-99094761D01*
X143581428Y-98951904D01*
X143486190Y-98904285D01*
X143390952Y-98904285D01*
X143438571Y-99142380D02*
X143343333Y-99094761D01*
X143248095Y-98999523D01*
X143200476Y-98809047D01*
X143200476Y-98475714D01*
X143248095Y-98285238D01*
X143343333Y-98190000D01*
X143438571Y-98142380D01*
X143629047Y-98142380D01*
X143724285Y-98190000D01*
X143819523Y-98285238D01*
X143867142Y-98475714D01*
X143867142Y-98809047D01*
X143819523Y-98999523D01*
X143724285Y-99094761D01*
X143629047Y-99142380D01*
X143438571Y-99142380D01*
X144819523Y-99142380D02*
X144248095Y-99142380D01*
X144533809Y-99142380D02*
X144533809Y-98142380D01*
X144438571Y-98285238D01*
X144343333Y-98380476D01*
X144248095Y-98428095D01*
%TO.C,D1*%
X143551904Y-92012380D02*
X143551904Y-91012380D01*
X143790000Y-91012380D01*
X143932857Y-91060000D01*
X144028095Y-91155238D01*
X144075714Y-91250476D01*
X144123333Y-91440952D01*
X144123333Y-91583809D01*
X144075714Y-91774285D01*
X144028095Y-91869523D01*
X143932857Y-91964761D01*
X143790000Y-92012380D01*
X143551904Y-92012380D01*
X145075714Y-92012380D02*
X144504285Y-92012380D01*
X144790000Y-92012380D02*
X144790000Y-91012380D01*
X144694761Y-91155238D01*
X144599523Y-91250476D01*
X144504285Y-91298095D01*
%TO.C,U2*%
X118842380Y-79581904D02*
X119651904Y-79581904D01*
X119747142Y-79534285D01*
X119794761Y-79486666D01*
X119842380Y-79391428D01*
X119842380Y-79200952D01*
X119794761Y-79105714D01*
X119747142Y-79058095D01*
X119651904Y-79010476D01*
X118842380Y-79010476D01*
X118937619Y-78581904D02*
X118890000Y-78534285D01*
X118842380Y-78439047D01*
X118842380Y-78200952D01*
X118890000Y-78105714D01*
X118937619Y-78058095D01*
X119032857Y-78010476D01*
X119128095Y-78010476D01*
X119270952Y-78058095D01*
X119842380Y-78629523D01*
X119842380Y-78010476D01*
%TO.C,R3*%
X129302380Y-71356666D02*
X128826190Y-71690000D01*
X129302380Y-71928095D02*
X128302380Y-71928095D01*
X128302380Y-71547142D01*
X128350000Y-71451904D01*
X128397619Y-71404285D01*
X128492857Y-71356666D01*
X128635714Y-71356666D01*
X128730952Y-71404285D01*
X128778571Y-71451904D01*
X128826190Y-71547142D01*
X128826190Y-71928095D01*
X128302380Y-71023333D02*
X128302380Y-70404285D01*
X128683333Y-70737619D01*
X128683333Y-70594761D01*
X128730952Y-70499523D01*
X128778571Y-70451904D01*
X128873809Y-70404285D01*
X129111904Y-70404285D01*
X129207142Y-70451904D01*
X129254761Y-70499523D01*
X129302380Y-70594761D01*
X129302380Y-70880476D01*
X129254761Y-70975714D01*
X129207142Y-71023333D01*
%TO.C,L1*%
X132412380Y-71286666D02*
X132412380Y-71762857D01*
X131412380Y-71762857D01*
X132412380Y-70429523D02*
X132412380Y-71000952D01*
X132412380Y-70715238D02*
X131412380Y-70715238D01*
X131555238Y-70810476D01*
X131650476Y-70905714D01*
X131698095Y-71000952D01*
%TO.C,U1*%
X128382380Y-83241904D02*
X129191904Y-83241904D01*
X129287142Y-83194285D01*
X129334761Y-83146666D01*
X129382380Y-83051428D01*
X129382380Y-82860952D01*
X129334761Y-82765714D01*
X129287142Y-82718095D01*
X129191904Y-82670476D01*
X128382380Y-82670476D01*
X129382380Y-81670476D02*
X129382380Y-82241904D01*
X129382380Y-81956190D02*
X128382380Y-81956190D01*
X128525238Y-82051428D01*
X128620476Y-82146666D01*
X128668095Y-82241904D01*
%TD*%
M02*
