%TF.GenerationSoftware,KiCad,Pcbnew,(5.1.10-1-10_14)*%
%TF.CreationDate,2021-07-28T23:22:07+08:00*%
%TF.ProjectId,maxm8q_board,6d61786d-3871-45f6-926f-6172642e6b69,rev?*%
%TF.SameCoordinates,Original*%
%TF.FileFunction,Copper,L2,Bot*%
%TF.FilePolarity,Positive*%
%FSLAX46Y46*%
G04 Gerber Fmt 4.6, Leading zero omitted, Abs format (unit mm)*
G04 Created by KiCad (PCBNEW (5.1.10-1-10_14)) date 2021-07-28 23:22:07*
%MOMM*%
%LPD*%
G01*
G04 APERTURE LIST*
%TA.AperFunction,SMDPad,CuDef*%
%ADD10R,4.200000X1.350000*%
%TD*%
%TA.AperFunction,ComponentPad*%
%ADD11R,1.000000X1.000000*%
%TD*%
%TA.AperFunction,ComponentPad*%
%ADD12O,1.700000X1.700000*%
%TD*%
%TA.AperFunction,ComponentPad*%
%ADD13R,1.700000X1.700000*%
%TD*%
%TA.AperFunction,ComponentPad*%
%ADD14O,1.800000X1.000000*%
%TD*%
%TA.AperFunction,ComponentPad*%
%ADD15O,2.000000X1.000000*%
%TD*%
%TA.AperFunction,ViaPad*%
%ADD16C,0.800000*%
%TD*%
%TA.AperFunction,Conductor*%
%ADD17C,0.800000*%
%TD*%
%TA.AperFunction,Conductor*%
%ADD18C,0.450000*%
%TD*%
%TA.AperFunction,Conductor*%
%ADD19C,0.250000*%
%TD*%
%TA.AperFunction,Conductor*%
%ADD20C,0.254000*%
%TD*%
%TA.AperFunction,Conductor*%
%ADD21C,0.100000*%
%TD*%
G04 APERTURE END LIST*
D10*
%TO.P,X1,2*%
%TO.N,GND*%
X143450000Y-80275000D03*
X143450000Y-85925000D03*
%TD*%
D11*
%TO.P,TP1,1*%
%TO.N,SAFEBOOT*%
X122760000Y-74290000D03*
%TD*%
D12*
%TO.P,J2,8*%
%TO.N,GND*%
X127120000Y-65520000D03*
%TO.P,J2,7*%
X127120000Y-62980000D03*
%TO.P,J2,6*%
%TO.N,TXD*%
X129660000Y-65520000D03*
%TO.P,J2,5*%
%TO.N,SDA*%
X129660000Y-62980000D03*
%TO.P,J2,4*%
%TO.N,RXD*%
X132200000Y-65520000D03*
%TO.P,J2,3*%
%TO.N,SCL*%
X132200000Y-62980000D03*
%TO.P,J2,2*%
%TO.N,GPS_VCC*%
X134740000Y-65520000D03*
D13*
%TO.P,J2,1*%
X134740000Y-62980000D03*
%TD*%
D12*
%TO.P,J4,8*%
%TO.N,GND*%
X135970000Y-101920000D03*
%TO.P,J4,7*%
X133430000Y-101920000D03*
%TO.P,J4,6*%
%TO.N,RESET*%
X135970000Y-99380000D03*
%TO.P,J4,5*%
%TO.N,TIMEPULSE*%
X133430000Y-99380000D03*
%TO.P,J4,4*%
%TO.N,EXTINT*%
X135970000Y-96840000D03*
%TO.P,J4,3*%
%TO.N,ENABLE*%
X133430000Y-96840000D03*
%TO.P,J4,2*%
%TO.N,GPS_VCC*%
X135970000Y-94300000D03*
D13*
%TO.P,J4,1*%
X133430000Y-94300000D03*
%TD*%
D14*
%TO.P,J1,0*%
%TO.N,Net-(J1-Pad0)*%
X102310000Y-91055000D03*
X102310000Y-83305000D03*
D15*
X106110000Y-90905000D03*
X106110000Y-83455000D03*
%TD*%
D16*
%TO.N,GND*%
X120930000Y-76890000D03*
X136965000Y-80275000D03*
X137075000Y-85925000D03*
%TO.N,RXD*%
X126810000Y-85120000D03*
%TO.N,TXD*%
X126180000Y-83830000D03*
%TO.N,GPS_VCC*%
X119000000Y-86210000D03*
%TO.N,EXTINT*%
X128890000Y-89700000D03*
%TO.N,ENABLE*%
X119860000Y-89890000D03*
X128900000Y-96540000D03*
%TO.N,VBAT*%
X112220000Y-74370000D03*
X108580000Y-74500000D03*
%TO.N,Net-(D3-Pad1)*%
X113270000Y-67640000D03*
X116080000Y-61240000D03*
%TO.N,TIMEPULSE*%
X127680000Y-89380000D03*
X140090000Y-95870000D03*
%TD*%
D17*
%TO.N,GND*%
X127120000Y-62980000D02*
X127120000Y-65520000D01*
D18*
X127120000Y-65520000D02*
X120930000Y-71710000D01*
X120930000Y-71710000D02*
X120930000Y-76890000D01*
D17*
X143450000Y-80275000D02*
X136965000Y-80275000D01*
X143450000Y-85925000D02*
X137075000Y-85925000D01*
D19*
%TO.N,RXD*%
X126810000Y-85120000D02*
X127240000Y-84690000D01*
X127240000Y-84690000D02*
X127240000Y-72310000D01*
X127240000Y-72310000D02*
X130460000Y-69090000D01*
X130460000Y-67260000D02*
X132200000Y-65520000D01*
X130460000Y-69090000D02*
X130460000Y-67260000D01*
%TO.N,TXD*%
X126180000Y-83830000D02*
X126180000Y-72120000D01*
X129660000Y-68640000D02*
X129660000Y-65520000D01*
X126180000Y-72120000D02*
X129660000Y-68640000D01*
D17*
%TO.N,GPS_VCC*%
X134740000Y-62980000D02*
X134740000Y-65520000D01*
X133430000Y-94300000D02*
X135970000Y-94300000D01*
D18*
X133430000Y-93018998D02*
X133430000Y-94300000D01*
X126621002Y-86210000D02*
X133430000Y-93018998D01*
X119000000Y-86210000D02*
X126621002Y-86210000D01*
X133464999Y-61704999D02*
X134740000Y-62980000D01*
X126507999Y-61704999D02*
X133464999Y-61704999D01*
X119000000Y-69212998D02*
X126507999Y-61704999D01*
X119000000Y-86210000D02*
X119000000Y-69212998D01*
D19*
%TO.N,EXTINT*%
X134605001Y-95475001D02*
X130995001Y-95475001D01*
X135970000Y-96840000D02*
X134605001Y-95475001D01*
X128890000Y-93370000D02*
X128890000Y-89700000D01*
X130995001Y-95475001D02*
X128890000Y-93370000D01*
%TO.N,ENABLE*%
X126510000Y-96540000D02*
X128900000Y-96540000D01*
X119860000Y-89890000D02*
X126510000Y-96540000D01*
D18*
%TO.N,Net-(J1-Pad0)*%
X105960000Y-83305000D02*
X106110000Y-83455000D01*
X102310000Y-83305000D02*
X105960000Y-83305000D01*
X102310000Y-83305000D02*
X102310000Y-91055000D01*
X102460000Y-90905000D02*
X102310000Y-91055000D01*
X106110000Y-90905000D02*
X102460000Y-90905000D01*
%TO.N,VBAT*%
X108710000Y-74370000D02*
X108580000Y-74500000D01*
X112220000Y-74370000D02*
X108710000Y-74370000D01*
D19*
%TO.N,Net-(D3-Pad1)*%
X113270000Y-64050000D02*
X116080000Y-61240000D01*
X113270000Y-67640000D02*
X113270000Y-64050000D01*
%TO.N,TIMEPULSE*%
X127680000Y-93630000D02*
X133430000Y-99380000D01*
X127680000Y-89380000D02*
X127680000Y-93630000D01*
X137755001Y-98204999D02*
X140090000Y-95870000D01*
X134605001Y-98204999D02*
X137755001Y-98204999D01*
X133430000Y-99380000D02*
X134605001Y-98204999D01*
%TD*%
D20*
%TO.N,GND*%
X115162795Y-60749744D02*
X115084774Y-60938102D01*
X115045000Y-61138061D01*
X115045000Y-61200198D01*
X112758998Y-63486201D01*
X112730000Y-63509999D01*
X112706202Y-63538997D01*
X112706201Y-63538998D01*
X112635026Y-63625724D01*
X112564454Y-63757754D01*
X112520998Y-63901015D01*
X112506324Y-64050000D01*
X112510001Y-64087332D01*
X112510000Y-66936289D01*
X112466063Y-66980226D01*
X112352795Y-67149744D01*
X112274774Y-67338102D01*
X112235000Y-67538061D01*
X112235000Y-67741939D01*
X112274774Y-67941898D01*
X112352795Y-68130256D01*
X112466063Y-68299774D01*
X112610226Y-68443937D01*
X112779744Y-68557205D01*
X112968102Y-68635226D01*
X113168061Y-68675000D01*
X113371939Y-68675000D01*
X113571898Y-68635226D01*
X113760256Y-68557205D01*
X113929774Y-68443937D01*
X114073937Y-68299774D01*
X114187205Y-68130256D01*
X114265226Y-67941898D01*
X114305000Y-67741939D01*
X114305000Y-67538061D01*
X114265226Y-67338102D01*
X114187205Y-67149744D01*
X114073937Y-66980226D01*
X114030000Y-66936289D01*
X114030000Y-64364801D01*
X116119802Y-62275000D01*
X116181939Y-62275000D01*
X116381898Y-62235226D01*
X116570256Y-62157205D01*
X116739774Y-62043937D01*
X116883937Y-61899774D01*
X116997205Y-61730256D01*
X117075226Y-61541898D01*
X117115000Y-61341939D01*
X117115000Y-61138061D01*
X117075226Y-60938102D01*
X116997205Y-60749744D01*
X116953945Y-60685000D01*
X142966495Y-60685000D01*
X143449016Y-60732312D01*
X143880930Y-60862714D01*
X144279285Y-61074524D01*
X144628914Y-61359675D01*
X144916497Y-61707303D01*
X145131086Y-62104177D01*
X145264498Y-62535161D01*
X145315000Y-63015654D01*
X145315000Y-78962326D01*
X143735750Y-78965000D01*
X143577000Y-79123750D01*
X143577000Y-80148000D01*
X143597000Y-80148000D01*
X143597000Y-80402000D01*
X143577000Y-80402000D01*
X143577000Y-81426250D01*
X143735750Y-81585000D01*
X145315000Y-81587674D01*
X145315001Y-84612326D01*
X143735750Y-84615000D01*
X143577000Y-84773750D01*
X143577000Y-85798000D01*
X143597000Y-85798000D01*
X143597000Y-86052000D01*
X143577000Y-86052000D01*
X143577000Y-87076250D01*
X143735750Y-87235000D01*
X145315001Y-87237674D01*
X145315001Y-102966485D01*
X145267688Y-103449016D01*
X145137287Y-103880927D01*
X144925480Y-104279280D01*
X144640325Y-104628914D01*
X144292697Y-104916497D01*
X143895825Y-105131085D01*
X143464834Y-105264500D01*
X142984346Y-105315000D01*
X103033504Y-105315000D01*
X102550984Y-105267688D01*
X102119073Y-105137287D01*
X101720720Y-104925480D01*
X101371086Y-104640325D01*
X101083503Y-104292697D01*
X100868915Y-103895825D01*
X100735500Y-103464834D01*
X100685000Y-102984346D01*
X100685000Y-102779872D01*
X100765000Y-102779872D01*
X100765000Y-103220128D01*
X100850890Y-103651925D01*
X101019369Y-104058669D01*
X101263962Y-104424729D01*
X101575271Y-104736038D01*
X101941331Y-104980631D01*
X102348075Y-105149110D01*
X102779872Y-105235000D01*
X103220128Y-105235000D01*
X103651925Y-105149110D01*
X104058669Y-104980631D01*
X104424729Y-104736038D01*
X104736038Y-104424729D01*
X104980631Y-104058669D01*
X105149110Y-103651925D01*
X105235000Y-103220128D01*
X105235000Y-102779872D01*
X105149110Y-102348075D01*
X105119625Y-102276890D01*
X131988524Y-102276890D01*
X132033175Y-102424099D01*
X132158359Y-102686920D01*
X132332412Y-102920269D01*
X132548645Y-103115178D01*
X132798748Y-103264157D01*
X133073109Y-103361481D01*
X133303000Y-103240814D01*
X133303000Y-102047000D01*
X133557000Y-102047000D01*
X133557000Y-103240814D01*
X133786891Y-103361481D01*
X134061252Y-103264157D01*
X134311355Y-103115178D01*
X134527588Y-102920269D01*
X134700000Y-102689120D01*
X134872412Y-102920269D01*
X135088645Y-103115178D01*
X135338748Y-103264157D01*
X135613109Y-103361481D01*
X135843000Y-103240814D01*
X135843000Y-102047000D01*
X136097000Y-102047000D01*
X136097000Y-103240814D01*
X136326891Y-103361481D01*
X136601252Y-103264157D01*
X136851355Y-103115178D01*
X137067588Y-102920269D01*
X137172308Y-102779872D01*
X140765000Y-102779872D01*
X140765000Y-103220128D01*
X140850890Y-103651925D01*
X141019369Y-104058669D01*
X141263962Y-104424729D01*
X141575271Y-104736038D01*
X141941331Y-104980631D01*
X142348075Y-105149110D01*
X142779872Y-105235000D01*
X143220128Y-105235000D01*
X143651925Y-105149110D01*
X144058669Y-104980631D01*
X144424729Y-104736038D01*
X144736038Y-104424729D01*
X144980631Y-104058669D01*
X145149110Y-103651925D01*
X145235000Y-103220128D01*
X145235000Y-102779872D01*
X145149110Y-102348075D01*
X144980631Y-101941331D01*
X144736038Y-101575271D01*
X144424729Y-101263962D01*
X144058669Y-101019369D01*
X143651925Y-100850890D01*
X143220128Y-100765000D01*
X142779872Y-100765000D01*
X142348075Y-100850890D01*
X141941331Y-101019369D01*
X141575271Y-101263962D01*
X141263962Y-101575271D01*
X141019369Y-101941331D01*
X140850890Y-102348075D01*
X140765000Y-102779872D01*
X137172308Y-102779872D01*
X137241641Y-102686920D01*
X137366825Y-102424099D01*
X137411476Y-102276890D01*
X137290155Y-102047000D01*
X136097000Y-102047000D01*
X135843000Y-102047000D01*
X133557000Y-102047000D01*
X133303000Y-102047000D01*
X132109845Y-102047000D01*
X131988524Y-102276890D01*
X105119625Y-102276890D01*
X104980631Y-101941331D01*
X104736038Y-101575271D01*
X104424729Y-101263962D01*
X104058669Y-101019369D01*
X103651925Y-100850890D01*
X103220128Y-100765000D01*
X102779872Y-100765000D01*
X102348075Y-100850890D01*
X101941331Y-101019369D01*
X101575271Y-101263962D01*
X101263962Y-101575271D01*
X101019369Y-101941331D01*
X100850890Y-102348075D01*
X100765000Y-102779872D01*
X100685000Y-102779872D01*
X100685000Y-97473589D01*
X109025000Y-97473589D01*
X109025000Y-97746411D01*
X109078225Y-98013989D01*
X109182629Y-98266043D01*
X109334201Y-98492886D01*
X109527114Y-98685799D01*
X109753957Y-98837371D01*
X110006011Y-98941775D01*
X110273589Y-98995000D01*
X110546411Y-98995000D01*
X110813989Y-98941775D01*
X111066043Y-98837371D01*
X111292886Y-98685799D01*
X111485799Y-98492886D01*
X111637371Y-98266043D01*
X111741775Y-98013989D01*
X111795000Y-97746411D01*
X111795000Y-97473589D01*
X116475000Y-97473589D01*
X116475000Y-97746411D01*
X116528225Y-98013989D01*
X116632629Y-98266043D01*
X116784201Y-98492886D01*
X116977114Y-98685799D01*
X117203957Y-98837371D01*
X117456011Y-98941775D01*
X117723589Y-98995000D01*
X117996411Y-98995000D01*
X118263989Y-98941775D01*
X118516043Y-98837371D01*
X118742886Y-98685799D01*
X118935799Y-98492886D01*
X119087371Y-98266043D01*
X119191775Y-98013989D01*
X119245000Y-97746411D01*
X119245000Y-97473589D01*
X119191775Y-97206011D01*
X119087371Y-96953957D01*
X118935799Y-96727114D01*
X118742886Y-96534201D01*
X118516043Y-96382629D01*
X118263989Y-96278225D01*
X117996411Y-96225000D01*
X117723589Y-96225000D01*
X117456011Y-96278225D01*
X117203957Y-96382629D01*
X116977114Y-96534201D01*
X116784201Y-96727114D01*
X116632629Y-96953957D01*
X116528225Y-97206011D01*
X116475000Y-97473589D01*
X111795000Y-97473589D01*
X111741775Y-97206011D01*
X111637371Y-96953957D01*
X111485799Y-96727114D01*
X111292886Y-96534201D01*
X111066043Y-96382629D01*
X110813989Y-96278225D01*
X110546411Y-96225000D01*
X110273589Y-96225000D01*
X110006011Y-96278225D01*
X109753957Y-96382629D01*
X109527114Y-96534201D01*
X109334201Y-96727114D01*
X109182629Y-96953957D01*
X109078225Y-97206011D01*
X109025000Y-97473589D01*
X100685000Y-97473589D01*
X100685000Y-83305000D01*
X100769509Y-83305000D01*
X100791423Y-83527499D01*
X100856324Y-83741447D01*
X100961716Y-83938623D01*
X101103551Y-84111449D01*
X101276377Y-84253284D01*
X101450000Y-84346087D01*
X101450001Y-90013913D01*
X101276377Y-90106716D01*
X101103551Y-90248551D01*
X100961716Y-90421377D01*
X100856324Y-90618553D01*
X100791423Y-90832501D01*
X100769509Y-91055000D01*
X100791423Y-91277499D01*
X100856324Y-91491447D01*
X100961716Y-91688623D01*
X101103551Y-91861449D01*
X101276377Y-92003284D01*
X101473553Y-92108676D01*
X101687501Y-92173577D01*
X101854248Y-92190000D01*
X102765752Y-92190000D01*
X102932499Y-92173577D01*
X103146447Y-92108676D01*
X103343623Y-92003284D01*
X103516449Y-91861449D01*
X103595603Y-91765000D01*
X104868803Y-91765000D01*
X104976377Y-91853284D01*
X105173553Y-91958676D01*
X105387501Y-92023577D01*
X105554248Y-92040000D01*
X106665752Y-92040000D01*
X106832499Y-92023577D01*
X107046447Y-91958676D01*
X107243623Y-91853284D01*
X107416449Y-91711449D01*
X107558284Y-91538623D01*
X107663676Y-91341447D01*
X107728577Y-91127499D01*
X107750491Y-90905000D01*
X107728577Y-90682501D01*
X107663676Y-90468553D01*
X107558284Y-90271377D01*
X107416449Y-90098551D01*
X107243623Y-89956716D01*
X107046447Y-89851324D01*
X106832499Y-89786423D01*
X106665752Y-89770000D01*
X106095000Y-89770000D01*
X106095000Y-89578061D01*
X106055226Y-89378102D01*
X105977205Y-89189744D01*
X105863937Y-89020226D01*
X105719774Y-88876063D01*
X105550256Y-88762795D01*
X105361898Y-88684774D01*
X105161939Y-88645000D01*
X104958061Y-88645000D01*
X104758102Y-88684774D01*
X104569744Y-88762795D01*
X104400226Y-88876063D01*
X104256063Y-89020226D01*
X104142795Y-89189744D01*
X104064774Y-89378102D01*
X104025000Y-89578061D01*
X104025000Y-89781939D01*
X104064774Y-89981898D01*
X104090912Y-90045000D01*
X103228160Y-90045000D01*
X103170000Y-90013913D01*
X103170000Y-86108061D01*
X117965000Y-86108061D01*
X117965000Y-86311939D01*
X118004774Y-86511898D01*
X118082795Y-86700256D01*
X118196063Y-86869774D01*
X118340226Y-87013937D01*
X118509744Y-87127205D01*
X118698102Y-87205226D01*
X118898061Y-87245000D01*
X119101939Y-87245000D01*
X119301898Y-87205226D01*
X119490256Y-87127205D01*
X119575870Y-87070000D01*
X126264779Y-87070000D01*
X127546130Y-88351351D01*
X127378102Y-88384774D01*
X127189744Y-88462795D01*
X127020226Y-88576063D01*
X126876063Y-88720226D01*
X126762795Y-88889744D01*
X126684774Y-89078102D01*
X126645000Y-89278061D01*
X126645000Y-89481939D01*
X126684774Y-89681898D01*
X126762795Y-89870256D01*
X126876063Y-90039774D01*
X126920000Y-90083711D01*
X126920001Y-93592668D01*
X126916324Y-93630000D01*
X126930998Y-93778985D01*
X126974454Y-93922246D01*
X127045026Y-94054276D01*
X127116201Y-94141002D01*
X127140000Y-94170001D01*
X127168998Y-94193799D01*
X128542856Y-95567658D01*
X128409744Y-95622795D01*
X128240226Y-95736063D01*
X128196289Y-95780000D01*
X126824802Y-95780000D01*
X120895000Y-89850199D01*
X120895000Y-89788061D01*
X120855226Y-89588102D01*
X120777205Y-89399744D01*
X120663937Y-89230226D01*
X120519774Y-89086063D01*
X120350256Y-88972795D01*
X120161898Y-88894774D01*
X119961939Y-88855000D01*
X119758061Y-88855000D01*
X119558102Y-88894774D01*
X119369744Y-88972795D01*
X119200226Y-89086063D01*
X119056063Y-89230226D01*
X118942795Y-89399744D01*
X118864774Y-89588102D01*
X118825000Y-89788061D01*
X118825000Y-89991939D01*
X118864774Y-90191898D01*
X118942795Y-90380256D01*
X119056063Y-90549774D01*
X119200226Y-90693937D01*
X119369744Y-90807205D01*
X119558102Y-90885226D01*
X119758061Y-90925000D01*
X119820199Y-90925000D01*
X125946201Y-97051003D01*
X125969999Y-97080001D01*
X126085724Y-97174974D01*
X126217753Y-97245546D01*
X126361014Y-97289003D01*
X126472667Y-97300000D01*
X126472676Y-97300000D01*
X126509999Y-97303676D01*
X126547322Y-97300000D01*
X128196289Y-97300000D01*
X128240226Y-97343937D01*
X128409744Y-97457205D01*
X128598102Y-97535226D01*
X128798061Y-97575000D01*
X129001939Y-97575000D01*
X129201898Y-97535226D01*
X129390256Y-97457205D01*
X129559774Y-97343937D01*
X129703937Y-97199774D01*
X129817205Y-97030256D01*
X129872342Y-96897144D01*
X131988790Y-99013592D01*
X131945000Y-99233740D01*
X131945000Y-99526260D01*
X132002068Y-99813158D01*
X132114010Y-100083411D01*
X132276525Y-100326632D01*
X132483368Y-100533475D01*
X132665534Y-100655195D01*
X132548645Y-100724822D01*
X132332412Y-100919731D01*
X132158359Y-101153080D01*
X132033175Y-101415901D01*
X131988524Y-101563110D01*
X132109845Y-101793000D01*
X133303000Y-101793000D01*
X133303000Y-101773000D01*
X133557000Y-101773000D01*
X133557000Y-101793000D01*
X135843000Y-101793000D01*
X135843000Y-101773000D01*
X136097000Y-101773000D01*
X136097000Y-101793000D01*
X137290155Y-101793000D01*
X137411476Y-101563110D01*
X137366825Y-101415901D01*
X137241641Y-101153080D01*
X137067588Y-100919731D01*
X136851355Y-100724822D01*
X136734466Y-100655195D01*
X136916632Y-100533475D01*
X137123475Y-100326632D01*
X137285990Y-100083411D01*
X137397932Y-99813158D01*
X137455000Y-99526260D01*
X137455000Y-99233740D01*
X137401544Y-98964999D01*
X137717679Y-98964999D01*
X137755001Y-98968675D01*
X137792323Y-98964999D01*
X137792334Y-98964999D01*
X137903987Y-98954002D01*
X138047248Y-98910545D01*
X138179277Y-98839973D01*
X138295002Y-98745000D01*
X138318805Y-98715996D01*
X140129802Y-96905000D01*
X140191939Y-96905000D01*
X140391898Y-96865226D01*
X140580256Y-96787205D01*
X140749774Y-96673937D01*
X140893937Y-96529774D01*
X141007205Y-96360256D01*
X141085226Y-96171898D01*
X141125000Y-95971939D01*
X141125000Y-95768061D01*
X141085226Y-95568102D01*
X141007205Y-95379744D01*
X140893937Y-95210226D01*
X140749774Y-95066063D01*
X140580256Y-94952795D01*
X140391898Y-94874774D01*
X140191939Y-94835000D01*
X139988061Y-94835000D01*
X139788102Y-94874774D01*
X139599744Y-94952795D01*
X139430226Y-95066063D01*
X139286063Y-95210226D01*
X139172795Y-95379744D01*
X139094774Y-95568102D01*
X139055000Y-95768061D01*
X139055000Y-95830198D01*
X137440200Y-97444999D01*
X137326753Y-97444999D01*
X137397932Y-97273158D01*
X137455000Y-96986260D01*
X137455000Y-96693740D01*
X137397932Y-96406842D01*
X137285990Y-96136589D01*
X137123475Y-95893368D01*
X136916632Y-95686525D01*
X136742240Y-95570000D01*
X136916632Y-95453475D01*
X137123475Y-95246632D01*
X137285990Y-95003411D01*
X137397932Y-94733158D01*
X137455000Y-94446260D01*
X137455000Y-94153740D01*
X137397932Y-93866842D01*
X137285990Y-93596589D01*
X137123475Y-93353368D01*
X136916632Y-93146525D01*
X136673411Y-92984010D01*
X136403158Y-92872068D01*
X136116260Y-92815000D01*
X135823740Y-92815000D01*
X135536842Y-92872068D01*
X135266589Y-92984010D01*
X135023368Y-93146525D01*
X134904893Y-93265000D01*
X134887454Y-93265000D01*
X134869502Y-93205820D01*
X134810537Y-93095506D01*
X134731185Y-92998815D01*
X134634494Y-92919463D01*
X134524180Y-92860498D01*
X134404482Y-92824188D01*
X134280000Y-92811928D01*
X134265883Y-92811928D01*
X134254665Y-92774948D01*
X134228381Y-92688298D01*
X134148524Y-92538896D01*
X134041054Y-92407944D01*
X134008242Y-92381016D01*
X128227226Y-86600000D01*
X140711928Y-86600000D01*
X140724188Y-86724482D01*
X140760498Y-86844180D01*
X140819463Y-86954494D01*
X140898815Y-87051185D01*
X140995506Y-87130537D01*
X141105820Y-87189502D01*
X141225518Y-87225812D01*
X141350000Y-87238072D01*
X143164250Y-87235000D01*
X143323000Y-87076250D01*
X143323000Y-86052000D01*
X140873750Y-86052000D01*
X140715000Y-86210750D01*
X140711928Y-86600000D01*
X128227226Y-86600000D01*
X127510468Y-85883243D01*
X127613937Y-85779774D01*
X127727205Y-85610256D01*
X127805226Y-85421898D01*
X127839418Y-85250000D01*
X140711928Y-85250000D01*
X140715000Y-85639250D01*
X140873750Y-85798000D01*
X143323000Y-85798000D01*
X143323000Y-84773750D01*
X143164250Y-84615000D01*
X141350000Y-84611928D01*
X141225518Y-84624188D01*
X141105820Y-84660498D01*
X140995506Y-84719463D01*
X140898815Y-84798815D01*
X140819463Y-84895506D01*
X140760498Y-85005820D01*
X140724188Y-85125518D01*
X140711928Y-85250000D01*
X127839418Y-85250000D01*
X127845000Y-85221939D01*
X127845000Y-85150799D01*
X127874974Y-85114276D01*
X127945546Y-84982247D01*
X127989003Y-84838986D01*
X128000000Y-84727333D01*
X128000000Y-84727323D01*
X128003676Y-84690000D01*
X128000000Y-84652677D01*
X128000000Y-80950000D01*
X140711928Y-80950000D01*
X140724188Y-81074482D01*
X140760498Y-81194180D01*
X140819463Y-81304494D01*
X140898815Y-81401185D01*
X140995506Y-81480537D01*
X141105820Y-81539502D01*
X141225518Y-81575812D01*
X141350000Y-81588072D01*
X143164250Y-81585000D01*
X143323000Y-81426250D01*
X143323000Y-80402000D01*
X140873750Y-80402000D01*
X140715000Y-80560750D01*
X140711928Y-80950000D01*
X128000000Y-80950000D01*
X128000000Y-79600000D01*
X140711928Y-79600000D01*
X140715000Y-79989250D01*
X140873750Y-80148000D01*
X143323000Y-80148000D01*
X143323000Y-79123750D01*
X143164250Y-78965000D01*
X141350000Y-78961928D01*
X141225518Y-78974188D01*
X141105820Y-79010498D01*
X140995506Y-79069463D01*
X140898815Y-79148815D01*
X140819463Y-79245506D01*
X140760498Y-79355820D01*
X140724188Y-79475518D01*
X140711928Y-79600000D01*
X128000000Y-79600000D01*
X128000000Y-72624801D01*
X130971004Y-69653798D01*
X131000001Y-69630001D01*
X131094974Y-69514276D01*
X131165546Y-69382247D01*
X131209003Y-69238986D01*
X131220000Y-69127333D01*
X131220000Y-69127325D01*
X131223676Y-69090000D01*
X131220000Y-69052675D01*
X131220000Y-67574801D01*
X131833592Y-66961209D01*
X132053740Y-67005000D01*
X132346260Y-67005000D01*
X132633158Y-66947932D01*
X132903411Y-66835990D01*
X133146632Y-66673475D01*
X133353475Y-66466632D01*
X133470000Y-66292240D01*
X133586525Y-66466632D01*
X133793368Y-66673475D01*
X134036589Y-66835990D01*
X134306842Y-66947932D01*
X134593740Y-67005000D01*
X134886260Y-67005000D01*
X135173158Y-66947932D01*
X135443411Y-66835990D01*
X135686632Y-66673475D01*
X135893475Y-66466632D01*
X136055990Y-66223411D01*
X136167932Y-65953158D01*
X136225000Y-65666260D01*
X136225000Y-65373740D01*
X136167932Y-65086842D01*
X136055990Y-64816589D01*
X135893475Y-64573368D01*
X135775000Y-64454893D01*
X135775000Y-64437454D01*
X135834180Y-64419502D01*
X135944494Y-64360537D01*
X136041185Y-64281185D01*
X136120537Y-64184494D01*
X136179502Y-64074180D01*
X136215812Y-63954482D01*
X136228072Y-63830000D01*
X136228072Y-62779872D01*
X140765000Y-62779872D01*
X140765000Y-63220128D01*
X140850890Y-63651925D01*
X141019369Y-64058669D01*
X141263962Y-64424729D01*
X141575271Y-64736038D01*
X141941331Y-64980631D01*
X142348075Y-65149110D01*
X142779872Y-65235000D01*
X143220128Y-65235000D01*
X143651925Y-65149110D01*
X144058669Y-64980631D01*
X144424729Y-64736038D01*
X144736038Y-64424729D01*
X144980631Y-64058669D01*
X145149110Y-63651925D01*
X145235000Y-63220128D01*
X145235000Y-62779872D01*
X145149110Y-62348075D01*
X144980631Y-61941331D01*
X144736038Y-61575271D01*
X144424729Y-61263962D01*
X144058669Y-61019369D01*
X143651925Y-60850890D01*
X143220128Y-60765000D01*
X142779872Y-60765000D01*
X142348075Y-60850890D01*
X141941331Y-61019369D01*
X141575271Y-61263962D01*
X141263962Y-61575271D01*
X141019369Y-61941331D01*
X140850890Y-62348075D01*
X140765000Y-62779872D01*
X136228072Y-62779872D01*
X136228072Y-62130000D01*
X136215812Y-62005518D01*
X136179502Y-61885820D01*
X136120537Y-61775506D01*
X136041185Y-61678815D01*
X135944494Y-61599463D01*
X135834180Y-61540498D01*
X135714482Y-61504188D01*
X135590000Y-61491928D01*
X134468151Y-61491928D01*
X134102987Y-61126764D01*
X134076053Y-61093945D01*
X133945101Y-60986475D01*
X133795699Y-60906618D01*
X133633588Y-60857443D01*
X133507245Y-60844999D01*
X133507238Y-60844999D01*
X133464999Y-60840839D01*
X133422760Y-60844999D01*
X126550237Y-60844999D01*
X126507998Y-60840839D01*
X126465759Y-60844999D01*
X126465753Y-60844999D01*
X126356557Y-60855754D01*
X126339409Y-60857443D01*
X126290234Y-60872360D01*
X126177299Y-60906618D01*
X126027897Y-60986475D01*
X126027895Y-60986476D01*
X126027896Y-60986476D01*
X125932589Y-61064693D01*
X125896945Y-61093945D01*
X125870016Y-61126758D01*
X118421760Y-68575015D01*
X118388947Y-68601944D01*
X118362018Y-68634757D01*
X118362016Y-68634759D01*
X118281477Y-68732896D01*
X118201620Y-68882298D01*
X118152444Y-69044409D01*
X118135840Y-69212998D01*
X118140001Y-69255247D01*
X118140000Y-85634130D01*
X118082795Y-85719744D01*
X118004774Y-85908102D01*
X117965000Y-86108061D01*
X103170000Y-86108061D01*
X103170000Y-84346087D01*
X103343623Y-84253284D01*
X103451197Y-84165000D01*
X104159328Y-84165000D01*
X104142795Y-84189744D01*
X104064774Y-84378102D01*
X104025000Y-84578061D01*
X104025000Y-84781939D01*
X104064774Y-84981898D01*
X104142795Y-85170256D01*
X104256063Y-85339774D01*
X104400226Y-85483937D01*
X104569744Y-85597205D01*
X104758102Y-85675226D01*
X104958061Y-85715000D01*
X105161939Y-85715000D01*
X105361898Y-85675226D01*
X105550256Y-85597205D01*
X105719774Y-85483937D01*
X105863937Y-85339774D01*
X105977205Y-85170256D01*
X106055226Y-84981898D01*
X106095000Y-84781939D01*
X106095000Y-84590000D01*
X106665752Y-84590000D01*
X106832499Y-84573577D01*
X107046447Y-84508676D01*
X107243623Y-84403284D01*
X107416449Y-84261449D01*
X107558284Y-84088623D01*
X107663676Y-83891447D01*
X107728577Y-83677499D01*
X107750491Y-83455000D01*
X107728577Y-83232501D01*
X107663676Y-83018553D01*
X107558284Y-82821377D01*
X107416449Y-82648551D01*
X107243623Y-82506716D01*
X107046447Y-82401324D01*
X106832499Y-82336423D01*
X106665752Y-82320000D01*
X105554248Y-82320000D01*
X105387501Y-82336423D01*
X105173553Y-82401324D01*
X105091840Y-82445000D01*
X103451197Y-82445000D01*
X103343623Y-82356716D01*
X103146447Y-82251324D01*
X102932499Y-82186423D01*
X102765752Y-82170000D01*
X101854248Y-82170000D01*
X101687501Y-82186423D01*
X101473553Y-82251324D01*
X101276377Y-82356716D01*
X101103551Y-82498551D01*
X100961716Y-82671377D01*
X100856324Y-82868553D01*
X100791423Y-83082501D01*
X100769509Y-83305000D01*
X100685000Y-83305000D01*
X100685000Y-74398061D01*
X107545000Y-74398061D01*
X107545000Y-74601939D01*
X107584774Y-74801898D01*
X107662795Y-74990256D01*
X107776063Y-75159774D01*
X107920226Y-75303937D01*
X108089744Y-75417205D01*
X108278102Y-75495226D01*
X108478061Y-75535000D01*
X108681939Y-75535000D01*
X108881898Y-75495226D01*
X109070256Y-75417205D01*
X109239774Y-75303937D01*
X109313711Y-75230000D01*
X111644130Y-75230000D01*
X111729744Y-75287205D01*
X111918102Y-75365226D01*
X112118061Y-75405000D01*
X112321939Y-75405000D01*
X112521898Y-75365226D01*
X112710256Y-75287205D01*
X112879774Y-75173937D01*
X113023937Y-75029774D01*
X113137205Y-74860256D01*
X113215226Y-74671898D01*
X113255000Y-74471939D01*
X113255000Y-74268061D01*
X113215226Y-74068102D01*
X113137205Y-73879744D01*
X113023937Y-73710226D01*
X112879774Y-73566063D01*
X112710256Y-73452795D01*
X112521898Y-73374774D01*
X112321939Y-73335000D01*
X112118061Y-73335000D01*
X111918102Y-73374774D01*
X111729744Y-73452795D01*
X111644130Y-73510000D01*
X108894515Y-73510000D01*
X108881898Y-73504774D01*
X108681939Y-73465000D01*
X108478061Y-73465000D01*
X108278102Y-73504774D01*
X108089744Y-73582795D01*
X107920226Y-73696063D01*
X107776063Y-73840226D01*
X107662795Y-74009744D01*
X107584774Y-74198102D01*
X107545000Y-74398061D01*
X100685000Y-74398061D01*
X100685000Y-63033505D01*
X100709869Y-62779872D01*
X100765000Y-62779872D01*
X100765000Y-63220128D01*
X100850890Y-63651925D01*
X101019369Y-64058669D01*
X101263962Y-64424729D01*
X101575271Y-64736038D01*
X101941331Y-64980631D01*
X102348075Y-65149110D01*
X102779872Y-65235000D01*
X103220128Y-65235000D01*
X103651925Y-65149110D01*
X104058669Y-64980631D01*
X104424729Y-64736038D01*
X104736038Y-64424729D01*
X104980631Y-64058669D01*
X105149110Y-63651925D01*
X105235000Y-63220128D01*
X105235000Y-62779872D01*
X105149110Y-62348075D01*
X104980631Y-61941331D01*
X104736038Y-61575271D01*
X104424729Y-61263962D01*
X104058669Y-61019369D01*
X103651925Y-60850890D01*
X103220128Y-60765000D01*
X102779872Y-60765000D01*
X102348075Y-60850890D01*
X101941331Y-61019369D01*
X101575271Y-61263962D01*
X101263962Y-61575271D01*
X101019369Y-61941331D01*
X100850890Y-62348075D01*
X100765000Y-62779872D01*
X100709869Y-62779872D01*
X100732312Y-62550984D01*
X100862714Y-62119070D01*
X101074524Y-61720715D01*
X101359675Y-61371086D01*
X101707303Y-61083503D01*
X102104177Y-60868914D01*
X102535161Y-60735502D01*
X103015654Y-60685000D01*
X115206055Y-60685000D01*
X115162795Y-60749744D01*
%TA.AperFunction,Conductor*%
D21*
G36*
X115162795Y-60749744D02*
G01*
X115084774Y-60938102D01*
X115045000Y-61138061D01*
X115045000Y-61200198D01*
X112758998Y-63486201D01*
X112730000Y-63509999D01*
X112706202Y-63538997D01*
X112706201Y-63538998D01*
X112635026Y-63625724D01*
X112564454Y-63757754D01*
X112520998Y-63901015D01*
X112506324Y-64050000D01*
X112510001Y-64087332D01*
X112510000Y-66936289D01*
X112466063Y-66980226D01*
X112352795Y-67149744D01*
X112274774Y-67338102D01*
X112235000Y-67538061D01*
X112235000Y-67741939D01*
X112274774Y-67941898D01*
X112352795Y-68130256D01*
X112466063Y-68299774D01*
X112610226Y-68443937D01*
X112779744Y-68557205D01*
X112968102Y-68635226D01*
X113168061Y-68675000D01*
X113371939Y-68675000D01*
X113571898Y-68635226D01*
X113760256Y-68557205D01*
X113929774Y-68443937D01*
X114073937Y-68299774D01*
X114187205Y-68130256D01*
X114265226Y-67941898D01*
X114305000Y-67741939D01*
X114305000Y-67538061D01*
X114265226Y-67338102D01*
X114187205Y-67149744D01*
X114073937Y-66980226D01*
X114030000Y-66936289D01*
X114030000Y-64364801D01*
X116119802Y-62275000D01*
X116181939Y-62275000D01*
X116381898Y-62235226D01*
X116570256Y-62157205D01*
X116739774Y-62043937D01*
X116883937Y-61899774D01*
X116997205Y-61730256D01*
X117075226Y-61541898D01*
X117115000Y-61341939D01*
X117115000Y-61138061D01*
X117075226Y-60938102D01*
X116997205Y-60749744D01*
X116953945Y-60685000D01*
X142966495Y-60685000D01*
X143449016Y-60732312D01*
X143880930Y-60862714D01*
X144279285Y-61074524D01*
X144628914Y-61359675D01*
X144916497Y-61707303D01*
X145131086Y-62104177D01*
X145264498Y-62535161D01*
X145315000Y-63015654D01*
X145315000Y-78962326D01*
X143735750Y-78965000D01*
X143577000Y-79123750D01*
X143577000Y-80148000D01*
X143597000Y-80148000D01*
X143597000Y-80402000D01*
X143577000Y-80402000D01*
X143577000Y-81426250D01*
X143735750Y-81585000D01*
X145315000Y-81587674D01*
X145315001Y-84612326D01*
X143735750Y-84615000D01*
X143577000Y-84773750D01*
X143577000Y-85798000D01*
X143597000Y-85798000D01*
X143597000Y-86052000D01*
X143577000Y-86052000D01*
X143577000Y-87076250D01*
X143735750Y-87235000D01*
X145315001Y-87237674D01*
X145315001Y-102966485D01*
X145267688Y-103449016D01*
X145137287Y-103880927D01*
X144925480Y-104279280D01*
X144640325Y-104628914D01*
X144292697Y-104916497D01*
X143895825Y-105131085D01*
X143464834Y-105264500D01*
X142984346Y-105315000D01*
X103033504Y-105315000D01*
X102550984Y-105267688D01*
X102119073Y-105137287D01*
X101720720Y-104925480D01*
X101371086Y-104640325D01*
X101083503Y-104292697D01*
X100868915Y-103895825D01*
X100735500Y-103464834D01*
X100685000Y-102984346D01*
X100685000Y-102779872D01*
X100765000Y-102779872D01*
X100765000Y-103220128D01*
X100850890Y-103651925D01*
X101019369Y-104058669D01*
X101263962Y-104424729D01*
X101575271Y-104736038D01*
X101941331Y-104980631D01*
X102348075Y-105149110D01*
X102779872Y-105235000D01*
X103220128Y-105235000D01*
X103651925Y-105149110D01*
X104058669Y-104980631D01*
X104424729Y-104736038D01*
X104736038Y-104424729D01*
X104980631Y-104058669D01*
X105149110Y-103651925D01*
X105235000Y-103220128D01*
X105235000Y-102779872D01*
X105149110Y-102348075D01*
X105119625Y-102276890D01*
X131988524Y-102276890D01*
X132033175Y-102424099D01*
X132158359Y-102686920D01*
X132332412Y-102920269D01*
X132548645Y-103115178D01*
X132798748Y-103264157D01*
X133073109Y-103361481D01*
X133303000Y-103240814D01*
X133303000Y-102047000D01*
X133557000Y-102047000D01*
X133557000Y-103240814D01*
X133786891Y-103361481D01*
X134061252Y-103264157D01*
X134311355Y-103115178D01*
X134527588Y-102920269D01*
X134700000Y-102689120D01*
X134872412Y-102920269D01*
X135088645Y-103115178D01*
X135338748Y-103264157D01*
X135613109Y-103361481D01*
X135843000Y-103240814D01*
X135843000Y-102047000D01*
X136097000Y-102047000D01*
X136097000Y-103240814D01*
X136326891Y-103361481D01*
X136601252Y-103264157D01*
X136851355Y-103115178D01*
X137067588Y-102920269D01*
X137172308Y-102779872D01*
X140765000Y-102779872D01*
X140765000Y-103220128D01*
X140850890Y-103651925D01*
X141019369Y-104058669D01*
X141263962Y-104424729D01*
X141575271Y-104736038D01*
X141941331Y-104980631D01*
X142348075Y-105149110D01*
X142779872Y-105235000D01*
X143220128Y-105235000D01*
X143651925Y-105149110D01*
X144058669Y-104980631D01*
X144424729Y-104736038D01*
X144736038Y-104424729D01*
X144980631Y-104058669D01*
X145149110Y-103651925D01*
X145235000Y-103220128D01*
X145235000Y-102779872D01*
X145149110Y-102348075D01*
X144980631Y-101941331D01*
X144736038Y-101575271D01*
X144424729Y-101263962D01*
X144058669Y-101019369D01*
X143651925Y-100850890D01*
X143220128Y-100765000D01*
X142779872Y-100765000D01*
X142348075Y-100850890D01*
X141941331Y-101019369D01*
X141575271Y-101263962D01*
X141263962Y-101575271D01*
X141019369Y-101941331D01*
X140850890Y-102348075D01*
X140765000Y-102779872D01*
X137172308Y-102779872D01*
X137241641Y-102686920D01*
X137366825Y-102424099D01*
X137411476Y-102276890D01*
X137290155Y-102047000D01*
X136097000Y-102047000D01*
X135843000Y-102047000D01*
X133557000Y-102047000D01*
X133303000Y-102047000D01*
X132109845Y-102047000D01*
X131988524Y-102276890D01*
X105119625Y-102276890D01*
X104980631Y-101941331D01*
X104736038Y-101575271D01*
X104424729Y-101263962D01*
X104058669Y-101019369D01*
X103651925Y-100850890D01*
X103220128Y-100765000D01*
X102779872Y-100765000D01*
X102348075Y-100850890D01*
X101941331Y-101019369D01*
X101575271Y-101263962D01*
X101263962Y-101575271D01*
X101019369Y-101941331D01*
X100850890Y-102348075D01*
X100765000Y-102779872D01*
X100685000Y-102779872D01*
X100685000Y-97473589D01*
X109025000Y-97473589D01*
X109025000Y-97746411D01*
X109078225Y-98013989D01*
X109182629Y-98266043D01*
X109334201Y-98492886D01*
X109527114Y-98685799D01*
X109753957Y-98837371D01*
X110006011Y-98941775D01*
X110273589Y-98995000D01*
X110546411Y-98995000D01*
X110813989Y-98941775D01*
X111066043Y-98837371D01*
X111292886Y-98685799D01*
X111485799Y-98492886D01*
X111637371Y-98266043D01*
X111741775Y-98013989D01*
X111795000Y-97746411D01*
X111795000Y-97473589D01*
X116475000Y-97473589D01*
X116475000Y-97746411D01*
X116528225Y-98013989D01*
X116632629Y-98266043D01*
X116784201Y-98492886D01*
X116977114Y-98685799D01*
X117203957Y-98837371D01*
X117456011Y-98941775D01*
X117723589Y-98995000D01*
X117996411Y-98995000D01*
X118263989Y-98941775D01*
X118516043Y-98837371D01*
X118742886Y-98685799D01*
X118935799Y-98492886D01*
X119087371Y-98266043D01*
X119191775Y-98013989D01*
X119245000Y-97746411D01*
X119245000Y-97473589D01*
X119191775Y-97206011D01*
X119087371Y-96953957D01*
X118935799Y-96727114D01*
X118742886Y-96534201D01*
X118516043Y-96382629D01*
X118263989Y-96278225D01*
X117996411Y-96225000D01*
X117723589Y-96225000D01*
X117456011Y-96278225D01*
X117203957Y-96382629D01*
X116977114Y-96534201D01*
X116784201Y-96727114D01*
X116632629Y-96953957D01*
X116528225Y-97206011D01*
X116475000Y-97473589D01*
X111795000Y-97473589D01*
X111741775Y-97206011D01*
X111637371Y-96953957D01*
X111485799Y-96727114D01*
X111292886Y-96534201D01*
X111066043Y-96382629D01*
X110813989Y-96278225D01*
X110546411Y-96225000D01*
X110273589Y-96225000D01*
X110006011Y-96278225D01*
X109753957Y-96382629D01*
X109527114Y-96534201D01*
X109334201Y-96727114D01*
X109182629Y-96953957D01*
X109078225Y-97206011D01*
X109025000Y-97473589D01*
X100685000Y-97473589D01*
X100685000Y-83305000D01*
X100769509Y-83305000D01*
X100791423Y-83527499D01*
X100856324Y-83741447D01*
X100961716Y-83938623D01*
X101103551Y-84111449D01*
X101276377Y-84253284D01*
X101450000Y-84346087D01*
X101450001Y-90013913D01*
X101276377Y-90106716D01*
X101103551Y-90248551D01*
X100961716Y-90421377D01*
X100856324Y-90618553D01*
X100791423Y-90832501D01*
X100769509Y-91055000D01*
X100791423Y-91277499D01*
X100856324Y-91491447D01*
X100961716Y-91688623D01*
X101103551Y-91861449D01*
X101276377Y-92003284D01*
X101473553Y-92108676D01*
X101687501Y-92173577D01*
X101854248Y-92190000D01*
X102765752Y-92190000D01*
X102932499Y-92173577D01*
X103146447Y-92108676D01*
X103343623Y-92003284D01*
X103516449Y-91861449D01*
X103595603Y-91765000D01*
X104868803Y-91765000D01*
X104976377Y-91853284D01*
X105173553Y-91958676D01*
X105387501Y-92023577D01*
X105554248Y-92040000D01*
X106665752Y-92040000D01*
X106832499Y-92023577D01*
X107046447Y-91958676D01*
X107243623Y-91853284D01*
X107416449Y-91711449D01*
X107558284Y-91538623D01*
X107663676Y-91341447D01*
X107728577Y-91127499D01*
X107750491Y-90905000D01*
X107728577Y-90682501D01*
X107663676Y-90468553D01*
X107558284Y-90271377D01*
X107416449Y-90098551D01*
X107243623Y-89956716D01*
X107046447Y-89851324D01*
X106832499Y-89786423D01*
X106665752Y-89770000D01*
X106095000Y-89770000D01*
X106095000Y-89578061D01*
X106055226Y-89378102D01*
X105977205Y-89189744D01*
X105863937Y-89020226D01*
X105719774Y-88876063D01*
X105550256Y-88762795D01*
X105361898Y-88684774D01*
X105161939Y-88645000D01*
X104958061Y-88645000D01*
X104758102Y-88684774D01*
X104569744Y-88762795D01*
X104400226Y-88876063D01*
X104256063Y-89020226D01*
X104142795Y-89189744D01*
X104064774Y-89378102D01*
X104025000Y-89578061D01*
X104025000Y-89781939D01*
X104064774Y-89981898D01*
X104090912Y-90045000D01*
X103228160Y-90045000D01*
X103170000Y-90013913D01*
X103170000Y-86108061D01*
X117965000Y-86108061D01*
X117965000Y-86311939D01*
X118004774Y-86511898D01*
X118082795Y-86700256D01*
X118196063Y-86869774D01*
X118340226Y-87013937D01*
X118509744Y-87127205D01*
X118698102Y-87205226D01*
X118898061Y-87245000D01*
X119101939Y-87245000D01*
X119301898Y-87205226D01*
X119490256Y-87127205D01*
X119575870Y-87070000D01*
X126264779Y-87070000D01*
X127546130Y-88351351D01*
X127378102Y-88384774D01*
X127189744Y-88462795D01*
X127020226Y-88576063D01*
X126876063Y-88720226D01*
X126762795Y-88889744D01*
X126684774Y-89078102D01*
X126645000Y-89278061D01*
X126645000Y-89481939D01*
X126684774Y-89681898D01*
X126762795Y-89870256D01*
X126876063Y-90039774D01*
X126920000Y-90083711D01*
X126920001Y-93592668D01*
X126916324Y-93630000D01*
X126930998Y-93778985D01*
X126974454Y-93922246D01*
X127045026Y-94054276D01*
X127116201Y-94141002D01*
X127140000Y-94170001D01*
X127168998Y-94193799D01*
X128542856Y-95567658D01*
X128409744Y-95622795D01*
X128240226Y-95736063D01*
X128196289Y-95780000D01*
X126824802Y-95780000D01*
X120895000Y-89850199D01*
X120895000Y-89788061D01*
X120855226Y-89588102D01*
X120777205Y-89399744D01*
X120663937Y-89230226D01*
X120519774Y-89086063D01*
X120350256Y-88972795D01*
X120161898Y-88894774D01*
X119961939Y-88855000D01*
X119758061Y-88855000D01*
X119558102Y-88894774D01*
X119369744Y-88972795D01*
X119200226Y-89086063D01*
X119056063Y-89230226D01*
X118942795Y-89399744D01*
X118864774Y-89588102D01*
X118825000Y-89788061D01*
X118825000Y-89991939D01*
X118864774Y-90191898D01*
X118942795Y-90380256D01*
X119056063Y-90549774D01*
X119200226Y-90693937D01*
X119369744Y-90807205D01*
X119558102Y-90885226D01*
X119758061Y-90925000D01*
X119820199Y-90925000D01*
X125946201Y-97051003D01*
X125969999Y-97080001D01*
X126085724Y-97174974D01*
X126217753Y-97245546D01*
X126361014Y-97289003D01*
X126472667Y-97300000D01*
X126472676Y-97300000D01*
X126509999Y-97303676D01*
X126547322Y-97300000D01*
X128196289Y-97300000D01*
X128240226Y-97343937D01*
X128409744Y-97457205D01*
X128598102Y-97535226D01*
X128798061Y-97575000D01*
X129001939Y-97575000D01*
X129201898Y-97535226D01*
X129390256Y-97457205D01*
X129559774Y-97343937D01*
X129703937Y-97199774D01*
X129817205Y-97030256D01*
X129872342Y-96897144D01*
X131988790Y-99013592D01*
X131945000Y-99233740D01*
X131945000Y-99526260D01*
X132002068Y-99813158D01*
X132114010Y-100083411D01*
X132276525Y-100326632D01*
X132483368Y-100533475D01*
X132665534Y-100655195D01*
X132548645Y-100724822D01*
X132332412Y-100919731D01*
X132158359Y-101153080D01*
X132033175Y-101415901D01*
X131988524Y-101563110D01*
X132109845Y-101793000D01*
X133303000Y-101793000D01*
X133303000Y-101773000D01*
X133557000Y-101773000D01*
X133557000Y-101793000D01*
X135843000Y-101793000D01*
X135843000Y-101773000D01*
X136097000Y-101773000D01*
X136097000Y-101793000D01*
X137290155Y-101793000D01*
X137411476Y-101563110D01*
X137366825Y-101415901D01*
X137241641Y-101153080D01*
X137067588Y-100919731D01*
X136851355Y-100724822D01*
X136734466Y-100655195D01*
X136916632Y-100533475D01*
X137123475Y-100326632D01*
X137285990Y-100083411D01*
X137397932Y-99813158D01*
X137455000Y-99526260D01*
X137455000Y-99233740D01*
X137401544Y-98964999D01*
X137717679Y-98964999D01*
X137755001Y-98968675D01*
X137792323Y-98964999D01*
X137792334Y-98964999D01*
X137903987Y-98954002D01*
X138047248Y-98910545D01*
X138179277Y-98839973D01*
X138295002Y-98745000D01*
X138318805Y-98715996D01*
X140129802Y-96905000D01*
X140191939Y-96905000D01*
X140391898Y-96865226D01*
X140580256Y-96787205D01*
X140749774Y-96673937D01*
X140893937Y-96529774D01*
X141007205Y-96360256D01*
X141085226Y-96171898D01*
X141125000Y-95971939D01*
X141125000Y-95768061D01*
X141085226Y-95568102D01*
X141007205Y-95379744D01*
X140893937Y-95210226D01*
X140749774Y-95066063D01*
X140580256Y-94952795D01*
X140391898Y-94874774D01*
X140191939Y-94835000D01*
X139988061Y-94835000D01*
X139788102Y-94874774D01*
X139599744Y-94952795D01*
X139430226Y-95066063D01*
X139286063Y-95210226D01*
X139172795Y-95379744D01*
X139094774Y-95568102D01*
X139055000Y-95768061D01*
X139055000Y-95830198D01*
X137440200Y-97444999D01*
X137326753Y-97444999D01*
X137397932Y-97273158D01*
X137455000Y-96986260D01*
X137455000Y-96693740D01*
X137397932Y-96406842D01*
X137285990Y-96136589D01*
X137123475Y-95893368D01*
X136916632Y-95686525D01*
X136742240Y-95570000D01*
X136916632Y-95453475D01*
X137123475Y-95246632D01*
X137285990Y-95003411D01*
X137397932Y-94733158D01*
X137455000Y-94446260D01*
X137455000Y-94153740D01*
X137397932Y-93866842D01*
X137285990Y-93596589D01*
X137123475Y-93353368D01*
X136916632Y-93146525D01*
X136673411Y-92984010D01*
X136403158Y-92872068D01*
X136116260Y-92815000D01*
X135823740Y-92815000D01*
X135536842Y-92872068D01*
X135266589Y-92984010D01*
X135023368Y-93146525D01*
X134904893Y-93265000D01*
X134887454Y-93265000D01*
X134869502Y-93205820D01*
X134810537Y-93095506D01*
X134731185Y-92998815D01*
X134634494Y-92919463D01*
X134524180Y-92860498D01*
X134404482Y-92824188D01*
X134280000Y-92811928D01*
X134265883Y-92811928D01*
X134254665Y-92774948D01*
X134228381Y-92688298D01*
X134148524Y-92538896D01*
X134041054Y-92407944D01*
X134008242Y-92381016D01*
X128227226Y-86600000D01*
X140711928Y-86600000D01*
X140724188Y-86724482D01*
X140760498Y-86844180D01*
X140819463Y-86954494D01*
X140898815Y-87051185D01*
X140995506Y-87130537D01*
X141105820Y-87189502D01*
X141225518Y-87225812D01*
X141350000Y-87238072D01*
X143164250Y-87235000D01*
X143323000Y-87076250D01*
X143323000Y-86052000D01*
X140873750Y-86052000D01*
X140715000Y-86210750D01*
X140711928Y-86600000D01*
X128227226Y-86600000D01*
X127510468Y-85883243D01*
X127613937Y-85779774D01*
X127727205Y-85610256D01*
X127805226Y-85421898D01*
X127839418Y-85250000D01*
X140711928Y-85250000D01*
X140715000Y-85639250D01*
X140873750Y-85798000D01*
X143323000Y-85798000D01*
X143323000Y-84773750D01*
X143164250Y-84615000D01*
X141350000Y-84611928D01*
X141225518Y-84624188D01*
X141105820Y-84660498D01*
X140995506Y-84719463D01*
X140898815Y-84798815D01*
X140819463Y-84895506D01*
X140760498Y-85005820D01*
X140724188Y-85125518D01*
X140711928Y-85250000D01*
X127839418Y-85250000D01*
X127845000Y-85221939D01*
X127845000Y-85150799D01*
X127874974Y-85114276D01*
X127945546Y-84982247D01*
X127989003Y-84838986D01*
X128000000Y-84727333D01*
X128000000Y-84727323D01*
X128003676Y-84690000D01*
X128000000Y-84652677D01*
X128000000Y-80950000D01*
X140711928Y-80950000D01*
X140724188Y-81074482D01*
X140760498Y-81194180D01*
X140819463Y-81304494D01*
X140898815Y-81401185D01*
X140995506Y-81480537D01*
X141105820Y-81539502D01*
X141225518Y-81575812D01*
X141350000Y-81588072D01*
X143164250Y-81585000D01*
X143323000Y-81426250D01*
X143323000Y-80402000D01*
X140873750Y-80402000D01*
X140715000Y-80560750D01*
X140711928Y-80950000D01*
X128000000Y-80950000D01*
X128000000Y-79600000D01*
X140711928Y-79600000D01*
X140715000Y-79989250D01*
X140873750Y-80148000D01*
X143323000Y-80148000D01*
X143323000Y-79123750D01*
X143164250Y-78965000D01*
X141350000Y-78961928D01*
X141225518Y-78974188D01*
X141105820Y-79010498D01*
X140995506Y-79069463D01*
X140898815Y-79148815D01*
X140819463Y-79245506D01*
X140760498Y-79355820D01*
X140724188Y-79475518D01*
X140711928Y-79600000D01*
X128000000Y-79600000D01*
X128000000Y-72624801D01*
X130971004Y-69653798D01*
X131000001Y-69630001D01*
X131094974Y-69514276D01*
X131165546Y-69382247D01*
X131209003Y-69238986D01*
X131220000Y-69127333D01*
X131220000Y-69127325D01*
X131223676Y-69090000D01*
X131220000Y-69052675D01*
X131220000Y-67574801D01*
X131833592Y-66961209D01*
X132053740Y-67005000D01*
X132346260Y-67005000D01*
X132633158Y-66947932D01*
X132903411Y-66835990D01*
X133146632Y-66673475D01*
X133353475Y-66466632D01*
X133470000Y-66292240D01*
X133586525Y-66466632D01*
X133793368Y-66673475D01*
X134036589Y-66835990D01*
X134306842Y-66947932D01*
X134593740Y-67005000D01*
X134886260Y-67005000D01*
X135173158Y-66947932D01*
X135443411Y-66835990D01*
X135686632Y-66673475D01*
X135893475Y-66466632D01*
X136055990Y-66223411D01*
X136167932Y-65953158D01*
X136225000Y-65666260D01*
X136225000Y-65373740D01*
X136167932Y-65086842D01*
X136055990Y-64816589D01*
X135893475Y-64573368D01*
X135775000Y-64454893D01*
X135775000Y-64437454D01*
X135834180Y-64419502D01*
X135944494Y-64360537D01*
X136041185Y-64281185D01*
X136120537Y-64184494D01*
X136179502Y-64074180D01*
X136215812Y-63954482D01*
X136228072Y-63830000D01*
X136228072Y-62779872D01*
X140765000Y-62779872D01*
X140765000Y-63220128D01*
X140850890Y-63651925D01*
X141019369Y-64058669D01*
X141263962Y-64424729D01*
X141575271Y-64736038D01*
X141941331Y-64980631D01*
X142348075Y-65149110D01*
X142779872Y-65235000D01*
X143220128Y-65235000D01*
X143651925Y-65149110D01*
X144058669Y-64980631D01*
X144424729Y-64736038D01*
X144736038Y-64424729D01*
X144980631Y-64058669D01*
X145149110Y-63651925D01*
X145235000Y-63220128D01*
X145235000Y-62779872D01*
X145149110Y-62348075D01*
X144980631Y-61941331D01*
X144736038Y-61575271D01*
X144424729Y-61263962D01*
X144058669Y-61019369D01*
X143651925Y-60850890D01*
X143220128Y-60765000D01*
X142779872Y-60765000D01*
X142348075Y-60850890D01*
X141941331Y-61019369D01*
X141575271Y-61263962D01*
X141263962Y-61575271D01*
X141019369Y-61941331D01*
X140850890Y-62348075D01*
X140765000Y-62779872D01*
X136228072Y-62779872D01*
X136228072Y-62130000D01*
X136215812Y-62005518D01*
X136179502Y-61885820D01*
X136120537Y-61775506D01*
X136041185Y-61678815D01*
X135944494Y-61599463D01*
X135834180Y-61540498D01*
X135714482Y-61504188D01*
X135590000Y-61491928D01*
X134468151Y-61491928D01*
X134102987Y-61126764D01*
X134076053Y-61093945D01*
X133945101Y-60986475D01*
X133795699Y-60906618D01*
X133633588Y-60857443D01*
X133507245Y-60844999D01*
X133507238Y-60844999D01*
X133464999Y-60840839D01*
X133422760Y-60844999D01*
X126550237Y-60844999D01*
X126507998Y-60840839D01*
X126465759Y-60844999D01*
X126465753Y-60844999D01*
X126356557Y-60855754D01*
X126339409Y-60857443D01*
X126290234Y-60872360D01*
X126177299Y-60906618D01*
X126027897Y-60986475D01*
X126027895Y-60986476D01*
X126027896Y-60986476D01*
X125932589Y-61064693D01*
X125896945Y-61093945D01*
X125870016Y-61126758D01*
X118421760Y-68575015D01*
X118388947Y-68601944D01*
X118362018Y-68634757D01*
X118362016Y-68634759D01*
X118281477Y-68732896D01*
X118201620Y-68882298D01*
X118152444Y-69044409D01*
X118135840Y-69212998D01*
X118140001Y-69255247D01*
X118140000Y-85634130D01*
X118082795Y-85719744D01*
X118004774Y-85908102D01*
X117965000Y-86108061D01*
X103170000Y-86108061D01*
X103170000Y-84346087D01*
X103343623Y-84253284D01*
X103451197Y-84165000D01*
X104159328Y-84165000D01*
X104142795Y-84189744D01*
X104064774Y-84378102D01*
X104025000Y-84578061D01*
X104025000Y-84781939D01*
X104064774Y-84981898D01*
X104142795Y-85170256D01*
X104256063Y-85339774D01*
X104400226Y-85483937D01*
X104569744Y-85597205D01*
X104758102Y-85675226D01*
X104958061Y-85715000D01*
X105161939Y-85715000D01*
X105361898Y-85675226D01*
X105550256Y-85597205D01*
X105719774Y-85483937D01*
X105863937Y-85339774D01*
X105977205Y-85170256D01*
X106055226Y-84981898D01*
X106095000Y-84781939D01*
X106095000Y-84590000D01*
X106665752Y-84590000D01*
X106832499Y-84573577D01*
X107046447Y-84508676D01*
X107243623Y-84403284D01*
X107416449Y-84261449D01*
X107558284Y-84088623D01*
X107663676Y-83891447D01*
X107728577Y-83677499D01*
X107750491Y-83455000D01*
X107728577Y-83232501D01*
X107663676Y-83018553D01*
X107558284Y-82821377D01*
X107416449Y-82648551D01*
X107243623Y-82506716D01*
X107046447Y-82401324D01*
X106832499Y-82336423D01*
X106665752Y-82320000D01*
X105554248Y-82320000D01*
X105387501Y-82336423D01*
X105173553Y-82401324D01*
X105091840Y-82445000D01*
X103451197Y-82445000D01*
X103343623Y-82356716D01*
X103146447Y-82251324D01*
X102932499Y-82186423D01*
X102765752Y-82170000D01*
X101854248Y-82170000D01*
X101687501Y-82186423D01*
X101473553Y-82251324D01*
X101276377Y-82356716D01*
X101103551Y-82498551D01*
X100961716Y-82671377D01*
X100856324Y-82868553D01*
X100791423Y-83082501D01*
X100769509Y-83305000D01*
X100685000Y-83305000D01*
X100685000Y-74398061D01*
X107545000Y-74398061D01*
X107545000Y-74601939D01*
X107584774Y-74801898D01*
X107662795Y-74990256D01*
X107776063Y-75159774D01*
X107920226Y-75303937D01*
X108089744Y-75417205D01*
X108278102Y-75495226D01*
X108478061Y-75535000D01*
X108681939Y-75535000D01*
X108881898Y-75495226D01*
X109070256Y-75417205D01*
X109239774Y-75303937D01*
X109313711Y-75230000D01*
X111644130Y-75230000D01*
X111729744Y-75287205D01*
X111918102Y-75365226D01*
X112118061Y-75405000D01*
X112321939Y-75405000D01*
X112521898Y-75365226D01*
X112710256Y-75287205D01*
X112879774Y-75173937D01*
X113023937Y-75029774D01*
X113137205Y-74860256D01*
X113215226Y-74671898D01*
X113255000Y-74471939D01*
X113255000Y-74268061D01*
X113215226Y-74068102D01*
X113137205Y-73879744D01*
X113023937Y-73710226D01*
X112879774Y-73566063D01*
X112710256Y-73452795D01*
X112521898Y-73374774D01*
X112321939Y-73335000D01*
X112118061Y-73335000D01*
X111918102Y-73374774D01*
X111729744Y-73452795D01*
X111644130Y-73510000D01*
X108894515Y-73510000D01*
X108881898Y-73504774D01*
X108681939Y-73465000D01*
X108478061Y-73465000D01*
X108278102Y-73504774D01*
X108089744Y-73582795D01*
X107920226Y-73696063D01*
X107776063Y-73840226D01*
X107662795Y-74009744D01*
X107584774Y-74198102D01*
X107545000Y-74398061D01*
X100685000Y-74398061D01*
X100685000Y-63033505D01*
X100709869Y-62779872D01*
X100765000Y-62779872D01*
X100765000Y-63220128D01*
X100850890Y-63651925D01*
X101019369Y-64058669D01*
X101263962Y-64424729D01*
X101575271Y-64736038D01*
X101941331Y-64980631D01*
X102348075Y-65149110D01*
X102779872Y-65235000D01*
X103220128Y-65235000D01*
X103651925Y-65149110D01*
X104058669Y-64980631D01*
X104424729Y-64736038D01*
X104736038Y-64424729D01*
X104980631Y-64058669D01*
X105149110Y-63651925D01*
X105235000Y-63220128D01*
X105235000Y-62779872D01*
X105149110Y-62348075D01*
X104980631Y-61941331D01*
X104736038Y-61575271D01*
X104424729Y-61263962D01*
X104058669Y-61019369D01*
X103651925Y-60850890D01*
X103220128Y-60765000D01*
X102779872Y-60765000D01*
X102348075Y-60850890D01*
X101941331Y-61019369D01*
X101575271Y-61263962D01*
X101263962Y-61575271D01*
X101019369Y-61941331D01*
X100850890Y-62348075D01*
X100765000Y-62779872D01*
X100709869Y-62779872D01*
X100732312Y-62550984D01*
X100862714Y-62119070D01*
X101074524Y-61720715D01*
X101359675Y-61371086D01*
X101707303Y-61083503D01*
X102104177Y-60868914D01*
X102535161Y-60735502D01*
X103015654Y-60685000D01*
X115206055Y-60685000D01*
X115162795Y-60749744D01*
G37*
%TD.AperFunction*%
D20*
X127247000Y-62853000D02*
X127267000Y-62853000D01*
X127267000Y-63107000D01*
X127247000Y-63107000D01*
X127247000Y-65393000D01*
X127267000Y-65393000D01*
X127267000Y-65647000D01*
X127247000Y-65647000D01*
X127247000Y-66840155D01*
X127476890Y-66961476D01*
X127624099Y-66916825D01*
X127886920Y-66791641D01*
X128120269Y-66617588D01*
X128315178Y-66401355D01*
X128384805Y-66284466D01*
X128506525Y-66466632D01*
X128713368Y-66673475D01*
X128900001Y-66798179D01*
X128900000Y-68325198D01*
X125668998Y-71556201D01*
X125640000Y-71579999D01*
X125616202Y-71608997D01*
X125616201Y-71608998D01*
X125545026Y-71695724D01*
X125474454Y-71827754D01*
X125456870Y-71885724D01*
X125430998Y-71971014D01*
X125420001Y-72082667D01*
X125416324Y-72120000D01*
X125420001Y-72157332D01*
X125420000Y-83126289D01*
X125376063Y-83170226D01*
X125262795Y-83339744D01*
X125184774Y-83528102D01*
X125145000Y-83728061D01*
X125145000Y-83931939D01*
X125184774Y-84131898D01*
X125262795Y-84320256D01*
X125376063Y-84489774D01*
X125520226Y-84633937D01*
X125689744Y-84747205D01*
X125821530Y-84801793D01*
X125814774Y-84818102D01*
X125775000Y-85018061D01*
X125775000Y-85221939D01*
X125800473Y-85350000D01*
X119860000Y-85350000D01*
X119860000Y-73790000D01*
X121621928Y-73790000D01*
X121621928Y-74790000D01*
X121634188Y-74914482D01*
X121670498Y-75034180D01*
X121729463Y-75144494D01*
X121808815Y-75241185D01*
X121905506Y-75320537D01*
X122015820Y-75379502D01*
X122135518Y-75415812D01*
X122260000Y-75428072D01*
X123260000Y-75428072D01*
X123384482Y-75415812D01*
X123504180Y-75379502D01*
X123614494Y-75320537D01*
X123711185Y-75241185D01*
X123790537Y-75144494D01*
X123849502Y-75034180D01*
X123885812Y-74914482D01*
X123898072Y-74790000D01*
X123898072Y-73790000D01*
X123885812Y-73665518D01*
X123849502Y-73545820D01*
X123790537Y-73435506D01*
X123711185Y-73338815D01*
X123614494Y-73259463D01*
X123504180Y-73200498D01*
X123384482Y-73164188D01*
X123260000Y-73151928D01*
X122260000Y-73151928D01*
X122135518Y-73164188D01*
X122015820Y-73200498D01*
X121905506Y-73259463D01*
X121808815Y-73338815D01*
X121729463Y-73435506D01*
X121670498Y-73545820D01*
X121634188Y-73665518D01*
X121621928Y-73790000D01*
X119860000Y-73790000D01*
X119860000Y-69569221D01*
X123552330Y-65876891D01*
X125678519Y-65876891D01*
X125775843Y-66151252D01*
X125924822Y-66401355D01*
X126119731Y-66617588D01*
X126353080Y-66791641D01*
X126615901Y-66916825D01*
X126763110Y-66961476D01*
X126993000Y-66840155D01*
X126993000Y-65647000D01*
X125799186Y-65647000D01*
X125678519Y-65876891D01*
X123552330Y-65876891D01*
X125791569Y-63637653D01*
X125924822Y-63861355D01*
X126119731Y-64077588D01*
X126350880Y-64250000D01*
X126119731Y-64422412D01*
X125924822Y-64638645D01*
X125775843Y-64888748D01*
X125678519Y-65163109D01*
X125799186Y-65393000D01*
X126993000Y-65393000D01*
X126993000Y-63107000D01*
X126973000Y-63107000D01*
X126973000Y-62853000D01*
X126993000Y-62853000D01*
X126993000Y-62833000D01*
X127247000Y-62833000D01*
X127247000Y-62853000D01*
%TA.AperFunction,Conductor*%
D21*
G36*
X127247000Y-62853000D02*
G01*
X127267000Y-62853000D01*
X127267000Y-63107000D01*
X127247000Y-63107000D01*
X127247000Y-65393000D01*
X127267000Y-65393000D01*
X127267000Y-65647000D01*
X127247000Y-65647000D01*
X127247000Y-66840155D01*
X127476890Y-66961476D01*
X127624099Y-66916825D01*
X127886920Y-66791641D01*
X128120269Y-66617588D01*
X128315178Y-66401355D01*
X128384805Y-66284466D01*
X128506525Y-66466632D01*
X128713368Y-66673475D01*
X128900001Y-66798179D01*
X128900000Y-68325198D01*
X125668998Y-71556201D01*
X125640000Y-71579999D01*
X125616202Y-71608997D01*
X125616201Y-71608998D01*
X125545026Y-71695724D01*
X125474454Y-71827754D01*
X125456870Y-71885724D01*
X125430998Y-71971014D01*
X125420001Y-72082667D01*
X125416324Y-72120000D01*
X125420001Y-72157332D01*
X125420000Y-83126289D01*
X125376063Y-83170226D01*
X125262795Y-83339744D01*
X125184774Y-83528102D01*
X125145000Y-83728061D01*
X125145000Y-83931939D01*
X125184774Y-84131898D01*
X125262795Y-84320256D01*
X125376063Y-84489774D01*
X125520226Y-84633937D01*
X125689744Y-84747205D01*
X125821530Y-84801793D01*
X125814774Y-84818102D01*
X125775000Y-85018061D01*
X125775000Y-85221939D01*
X125800473Y-85350000D01*
X119860000Y-85350000D01*
X119860000Y-73790000D01*
X121621928Y-73790000D01*
X121621928Y-74790000D01*
X121634188Y-74914482D01*
X121670498Y-75034180D01*
X121729463Y-75144494D01*
X121808815Y-75241185D01*
X121905506Y-75320537D01*
X122015820Y-75379502D01*
X122135518Y-75415812D01*
X122260000Y-75428072D01*
X123260000Y-75428072D01*
X123384482Y-75415812D01*
X123504180Y-75379502D01*
X123614494Y-75320537D01*
X123711185Y-75241185D01*
X123790537Y-75144494D01*
X123849502Y-75034180D01*
X123885812Y-74914482D01*
X123898072Y-74790000D01*
X123898072Y-73790000D01*
X123885812Y-73665518D01*
X123849502Y-73545820D01*
X123790537Y-73435506D01*
X123711185Y-73338815D01*
X123614494Y-73259463D01*
X123504180Y-73200498D01*
X123384482Y-73164188D01*
X123260000Y-73151928D01*
X122260000Y-73151928D01*
X122135518Y-73164188D01*
X122015820Y-73200498D01*
X121905506Y-73259463D01*
X121808815Y-73338815D01*
X121729463Y-73435506D01*
X121670498Y-73545820D01*
X121634188Y-73665518D01*
X121621928Y-73790000D01*
X119860000Y-73790000D01*
X119860000Y-69569221D01*
X123552330Y-65876891D01*
X125678519Y-65876891D01*
X125775843Y-66151252D01*
X125924822Y-66401355D01*
X126119731Y-66617588D01*
X126353080Y-66791641D01*
X126615901Y-66916825D01*
X126763110Y-66961476D01*
X126993000Y-66840155D01*
X126993000Y-65647000D01*
X125799186Y-65647000D01*
X125678519Y-65876891D01*
X123552330Y-65876891D01*
X125791569Y-63637653D01*
X125924822Y-63861355D01*
X126119731Y-64077588D01*
X126350880Y-64250000D01*
X126119731Y-64422412D01*
X125924822Y-64638645D01*
X125775843Y-64888748D01*
X125678519Y-65163109D01*
X125799186Y-65393000D01*
X126993000Y-65393000D01*
X126993000Y-63107000D01*
X126973000Y-63107000D01*
X126973000Y-62853000D01*
X126993000Y-62853000D01*
X126993000Y-62833000D01*
X127247000Y-62833000D01*
X127247000Y-62853000D01*
G37*
%TD.AperFunction*%
%TD*%
M02*
