M48
; DRILL file {KiCad (5.1.10-1-10_14)} date Wednesday, July 28, 2021 at 11:22:05 PM
; FORMAT={-:-/ absolute / inch / decimal}
; #@! TF.CreationDate,2021-07-28T23:22:05+08:00
; #@! TF.GenerationSoftware,Kicad,Pcbnew,(5.1.10-1-10_14)
; #@! TF.FileFunction,Plated,1,2,PTH
FMAT,2
INCH
T1C0.0157
T2C0.0197
T3C0.0236
T4C0.0276
T5C0.0394
%
G90
G05
T1
X4.2748Y-2.9331
X4.4181Y-2.928
X4.4594Y-2.663
X4.5701Y-2.411
X4.685Y-3.3941
X4.7189Y-3.539
X4.761Y-3.0272
X4.9677Y-3.3004
X4.9925Y-3.3512
X5.0268Y-3.5189
X5.0744Y-3.5315
X5.0748Y-3.8008
X5.3923Y-3.1604
X5.3967Y-3.3829
X5.5154Y-3.7744
T2
X4.8331Y-2.9248
T5
X5.0047Y-2.4795
X5.0047Y-2.5795
X5.1047Y-2.4795
X5.1047Y-2.5795
X5.2047Y-2.4795
X5.2047Y-2.5795
X5.2531Y-3.7126
X5.2531Y-3.8126
X5.2531Y-3.9126
X5.2531Y-4.0126
X5.3047Y-2.4795
X5.3047Y-2.5795
X5.3531Y-3.7126
X5.3531Y-3.8126
X5.3531Y-3.9126
X5.3531Y-4.0126
T3
G00X4.0398Y-3.2797
M15
G01X4.0161Y-3.2797
M16
G05
G00X4.0398Y-3.5848
M15
G01X4.0161Y-3.5848
M16
G05
T4
G00X4.1913Y-3.2856
M15
G01X4.1638Y-3.2856
M16
G05
G00X4.1913Y-3.5789
M15
G01X4.1638Y-3.5789
M16
G05
T0
M30
